<svg width="48" height="48" viewBox="0 0 48 48" fill="none" xmlns="http://www.w3.org/2000/svg">
<path d="M24 44C35.0457 44 44 35.0457 44 24C44 12.9543 35.0457 4 24 4C12.9543 4 4 12.9543 4 24C4 35.0457 12.9543 44 24 44Z" stroke="#333333" stroke-width="3"/>
<path d="M17.8262 31.8676C20.3422 32.4976 23.1962 32.4976 26.0702 31.7276C28.9442 30.9576 31.4162 29.5296 33.2802 27.7256" stroke="#333333" stroke-width="3" stroke-linecap="round"/>
<path d="M29.7943 22.4459C30.8613 22.16 31.3786 20.6309 30.9497 19.0305C30.5209 17.4301 29.3084 16.3644 28.2414 16.6503C27.1745 16.9362 26.6572 18.4653 27.086 20.0657C27.5149 21.6661 28.7274 22.7318 29.7943 22.4459Z" fill="#333333"/>
<path d="M18.2045 25.5533C19.2714 25.2674 19.7887 23.7383 19.3599 22.1379C18.9311 20.5375 17.7185 19.4719 16.6516 19.7578C15.5846 20.0436 15.0674 21.5728 15.4962 23.1732C15.925 24.7736 17.1376 25.8392 18.2045 25.5533Z" fill="#333333"/>
<path d="M26 31.9996L26.956 33.9476C27.1289 34.3023 27.3702 34.6195 27.6659 34.8808C27.9616 35.1422 28.306 35.3426 28.6793 35.4707C29.0526 35.5987 29.4475 35.6518 29.8414 35.627C30.2352 35.6022 30.6203 35.4999 30.9746 35.326C31.3289 35.152 31.6454 34.9099 31.9059 34.6135C32.1664 34.3171 32.3659 33.9722 32.493 33.5985C32.62 33.2249 32.672 32.8298 32.6461 32.436C32.6202 32.0422 32.5169 31.6574 32.342 31.3036L31.422 29.4336" stroke="#333333" stroke-width="3"/>
</svg>
