<svg width="50" height="50" viewBox="0 0 50 50" fill="none" xmlns="http://www.w3.org/2000/svg">
<g clip-path="url(#clip0_843_20381)">
<path d="M0 38.6958C0.340909 34.6428 1.58182 30.9118 3.72273 27.5027C5.86364 24.0936 8.71364 21.3852 12.2727 19.3777L8.06818 12.1049C7.84091 11.764 7.78409 11.4042 7.89773 11.0254C8.01136 10.6466 8.25758 10.3625 8.63636 10.1731C8.93939 9.98371 9.2803 9.94584 9.65909 10.0595C10.0379 10.1731 10.3409 10.4004 10.5682 10.7413L14.7727 18.014C18.0303 16.6504 21.4394 15.9686 25 15.9686C28.5606 15.9686 31.9697 16.6504 35.2273 18.014L39.4318 10.7413C39.6591 10.4004 39.9621 10.1731 40.3409 10.0595C40.7197 9.94584 41.0606 9.98371 41.3636 10.1731C41.7424 10.3625 41.9886 10.6466 42.1023 11.0254C42.2159 11.4042 42.1591 11.764 41.9318 12.1049L37.7273 19.3777C41.2879 21.3852 44.1379 24.0936 46.2773 27.5027C48.4167 30.9118 49.6576 34.6428 50 38.6958H0ZM13.6364 32.4458C14.4318 32.4458 15.1045 32.1708 15.6545 31.6208C16.2045 31.0708 16.4788 30.3989 16.4773 29.6049C16.4773 28.8095 16.2023 28.1368 15.6523 27.5868C15.1023 27.0368 14.4303 26.7625 13.6364 26.764C12.8409 26.764 12.1682 27.039 11.6182 27.589C11.0682 28.139 10.7939 28.811 10.7955 29.6049C10.7955 30.4004 11.0705 31.0731 11.6205 31.6231C12.1705 32.1731 12.8424 32.4474 13.6364 32.4458ZM36.3636 32.4458C37.1591 32.4458 37.8318 32.1708 38.3818 31.6208C38.9318 31.0708 39.2061 30.3989 39.2045 29.6049C39.2045 28.8095 38.9295 28.1368 38.3795 27.5868C37.8295 27.0368 37.1576 26.7625 36.3636 26.764C35.5682 26.764 34.8955 27.039 34.3455 27.589C33.7955 28.139 33.5212 28.811 33.5227 29.6049C33.5227 30.4004 33.7977 31.0731 34.3477 31.6231C34.8977 32.1731 35.5697 32.4474 36.3636 32.4458Z" fill="#333333"/>
</g>
<defs>
<clipPath id="clip0_843_20381">
<rect width="50" height="50" fill="white"/>
</clipPath>
</defs>
</svg>
