<svg width="200" height="200" viewBox="0 0 200 200" fill="none" xmlns="http://www.w3.org/2000/svg">
<path fill-rule="evenodd" clip-rule="evenodd" d="M129.063 162.93C127.804 164.006 126.169 164.539 124.518 164.411C122.866 164.283 121.333 163.504 120.255 162.246L70.255 103.913C69.2845 102.78 68.7511 101.338 68.7511 99.8462C68.7511 98.3546 69.2845 96.9122 70.255 95.7795L120.255 37.4462C121.351 36.2497 122.869 35.5261 124.488 35.4285C126.108 35.3308 127.702 35.8668 128.933 36.923C130.165 37.9792 130.937 39.4729 131.088 41.0883C131.238 42.7038 130.754 44.3143 129.738 45.5795L83.23 99.8462L129.738 154.113C130.817 155.37 131.353 157.003 131.228 158.655C131.103 160.307 130.327 161.841 129.072 162.921L129.063 162.93Z" fill="#333333"/>
</svg>
