<svg width="50" height="51" viewBox="0 0 50 51" fill="none" xmlns="http://www.w3.org/2000/svg">
<path d="M33.3334 12.7498C33.3334 8.82067 33.3334 6.85817 32.1126 5.63734C30.8917 4.4165 28.9292 4.4165 25.0001 4.4165C21.0709 4.4165 19.1084 4.4165 17.8876 5.63734C16.6667 6.85817 16.6667 8.82067 16.6667 12.7498M4.16675 29.4165C4.16675 21.5603 4.16675 17.6311 6.60841 15.1915C9.048 12.7498 12.9772 12.7498 20.8334 12.7498H29.1667C37.023 12.7498 40.9522 12.7498 43.3917 15.1915C45.8334 17.6311 45.8334 21.5603 45.8334 29.4165C45.8334 37.2728 45.8334 41.2019 43.3917 43.6415C40.9522 46.0832 37.023 46.0832 29.1667 46.0832H20.8334C12.9772 46.0832 9.048 46.0832 6.60841 43.6415C4.16675 41.2019 4.16675 37.2728 4.16675 29.4165Z" stroke="white" stroke-width="3.125"/>
<path d="M20.8334 31.5H12.5001C11.5188 31.5 11.0272 31.5 10.7209 31.8042C10.4167 32.1104 10.4167 32.6042 10.4167 33.5833V35.6667C10.4167 36.6479 10.4167 37.1396 10.7209 37.4458C11.0272 37.75 11.5209 37.75 12.5001 37.75H20.8334C21.8147 37.75 22.3063 37.75 22.6126 37.4458C22.9167 37.1396 22.9167 36.6458 22.9167 35.6667V33.5833C22.9167 32.6021 22.9167 32.1104 22.6126 31.8042C22.3063 31.5 21.8126 31.5 20.8334 31.5Z" stroke="white" stroke-width="3.125" stroke-linejoin="round"/>
<path d="M12.5 13.7915V31.4998M12.5 45.0415V38.7915M37.5 13.7915V45.0415" stroke="white" stroke-width="3.125" stroke-linecap="round"/>
</svg>
