<svg width="50" height="50" viewBox="0 0 50 50" fill="none" xmlns="http://www.w3.org/2000/svg">
<path d="M18.9731 15.7303C18.5382 15.325 17.9629 15.1043 17.3684 15.1148C16.774 15.1253 16.2069 15.3661 15.7865 15.7865C15.3661 16.2069 15.1253 16.7741 15.1148 17.3685C15.1043 17.9629 15.325 18.5382 15.7303 18.9732L21.7571 25L15.7303 31.0268C15.5048 31.2369 15.324 31.4902 15.1986 31.7717C15.0732 32.0531 15.0058 32.357 15.0003 32.665C14.9949 32.9731 15.0516 33.2791 15.167 33.5648C15.2824 33.8505 15.4541 34.1101 15.672 34.328C15.8899 34.5458 16.1494 34.7176 16.4351 34.833C16.7208 34.9484 17.0268 35.0051 17.3349 34.9996C17.643 34.9942 17.9468 34.9268 18.2283 34.8014C18.5098 34.676 18.7631 34.4951 18.9731 34.2697L25 28.2429L31.0268 34.2697C31.4618 34.675 32.0371 34.8957 32.6315 34.8852C33.2259 34.8747 33.7931 34.6339 34.2135 34.2135C34.6338 33.7931 34.8747 33.226 34.8851 32.6315C34.8956 32.0371 34.675 31.4618 34.2697 31.0268L28.2428 25L34.2697 18.9732C34.4951 18.7631 34.6759 18.5098 34.8013 18.2283C34.9267 17.9469 34.9942 17.643 34.9996 17.335C35.005 17.0269 34.9484 16.7209 34.833 16.4352C34.7176 16.1495 34.5458 15.8899 34.3279 15.672C34.11 15.4542 33.8505 15.2824 33.5648 15.167C33.2791 15.0516 32.9731 14.9949 32.665 15.0004C32.3569 15.0058 32.0531 15.0732 31.7716 15.1986C31.4902 15.324 31.2369 15.5049 31.0268 15.7303L25 21.7571L18.9731 15.7303Z" fill="white"/>
</svg>
