<svg width="50" height="50" viewBox="0 0 50 50" fill="none" xmlns="http://www.w3.org/2000/svg">
<path fill-rule="evenodd" clip-rule="evenodd" d="M20.717 6.77084H29.2837C33.1128 6.77084 36.1462 6.77084 38.5191 7.08959C40.9607 7.41876 42.9378 8.11043 44.4982 9.66876C46.0566 11.2292 46.7482 13.2063 47.0774 15.6479C47.3962 18.0229 47.3962 21.0542 47.3962 24.8833V25.1167C47.3962 28.9458 47.3962 31.9792 47.0774 34.3521C46.7482 36.7938 46.0566 38.7708 44.4982 40.3313C42.9378 41.8896 40.9607 42.5813 38.5191 42.9104C36.1441 43.2292 33.1128 43.2292 29.2837 43.2292H20.717C16.8878 43.2292 13.8545 43.2292 11.4816 42.9104C9.03991 42.5813 7.06283 41.8896 5.50241 40.3313C3.94408 38.7708 3.25241 36.7938 2.92324 34.3521C2.60449 31.9771 2.60449 28.9458 2.60449 25.1167V24.8833C2.60449 21.0542 2.60449 18.0208 2.92324 15.6479C3.25241 13.2063 3.94408 11.2292 5.50241 9.66876C7.06283 8.11043 9.03991 7.41876 11.4816 7.08959C13.8566 6.77084 16.8878 6.77084 20.717 6.77084ZM11.8962 10.1875C9.80033 10.4688 8.59199 10.9979 7.70866 11.8792C6.82949 12.7604 6.30033 13.9688 6.01908 16.0646C5.73158 18.2063 5.72741 21.0271 5.72741 25C5.72741 28.9729 5.73158 31.7958 6.01908 33.9375C6.30033 36.0313 6.82949 37.2396 7.71074 38.1208C8.59199 39.0021 9.80033 39.5313 11.8962 39.8125C14.0378 40.1 16.8587 40.1042 20.8316 40.1042H29.1649C33.1378 40.1042 35.9607 40.1 38.1024 39.8125C40.1962 39.5313 41.4045 39.0021 42.2857 38.1208C43.167 37.2396 43.6962 36.0313 43.9774 33.9354C44.2649 31.7938 44.2691 28.9729 44.2691 25C44.2691 21.0271 44.2649 18.2063 43.9774 16.0625C43.6962 13.9688 43.167 12.7604 42.2857 11.8792C41.4045 10.9979 40.1962 10.4688 38.1003 10.1875C35.9607 9.90001 33.1378 9.89584 29.1649 9.89584H20.8316C16.8587 9.89584 14.0399 9.90001 11.8962 10.1875ZM11.2982 15.6667C11.5635 15.3485 11.9443 15.1487 12.3568 15.1112C12.7694 15.0737 13.1799 15.2016 13.4982 15.4667L18.0003 19.2146C19.9441 20.8333 21.292 21.9542 22.4337 22.6875C23.5357 23.3958 24.2837 23.6354 25.0024 23.6354C25.7212 23.6354 26.4691 23.3979 27.5712 22.6875C28.7107 21.9542 30.0607 20.8333 32.0045 19.2146L36.5024 15.4646C36.6601 15.3333 36.8422 15.2343 37.0381 15.1733C37.2341 15.1124 37.4402 15.0906 37.6446 15.1093C37.849 15.1279 38.0477 15.1867 38.2293 15.2821C38.411 15.3776 38.5721 15.5079 38.7034 15.6656C38.8348 15.8234 38.9337 16.0054 38.9947 16.2014C39.0557 16.3973 39.0774 16.6034 39.0588 16.8078C39.0401 17.0122 38.9814 17.2109 38.8859 17.3926C38.7904 17.5743 38.6601 17.7354 38.5024 17.8667L33.9274 21.6792C32.0795 23.2208 30.5837 24.4667 29.2607 25.3167C27.8857 26.2021 26.5462 26.7604 25.0024 26.7604C23.4587 26.7604 22.1191 26.2 20.742 25.3167C19.4212 24.4667 17.9253 23.2188 16.0774 21.6813L11.5003 17.8688C11.3425 17.7374 11.2121 17.5762 11.1166 17.3944C11.0211 17.2125 10.9624 17.0137 10.9438 16.8092C10.9253 16.6047 10.9472 16.3985 11.0084 16.2024C11.0695 16.0064 11.1667 15.8243 11.2982 15.6667Z" fill="#333333"/>
</svg>
