<svg width="50" height="50" viewBox="0 0 50 50" fill="none" xmlns="http://www.w3.org/2000/svg">
<path fill-rule="evenodd" clip-rule="evenodd" d="M37.2104 6.58957L37.5437 6.70207L40.0479 7.53541C41.0125 7.85832 41.8604 8.13957 42.5292 8.45207C43.2542 8.78957 43.9188 9.2229 44.4271 9.92915C44.9354 10.6333 45.1375 11.4021 45.2292 12.1958C45.3125 12.9312 45.3125 13.8229 45.3125 14.8417V31.95C45.3125 33.4042 45.3125 34.6312 45.2 35.6021C45.0833 36.6104 44.8208 37.6062 44.0854 38.4104C43.6501 38.887 43.121 39.2686 42.5313 39.5312C41.5354 39.9729 40.5083 39.9062 39.5146 39.7C38.5562 39.5 37.3938 39.1125 36.0146 38.6521L35.925 38.6229C33.5917 37.8437 32.7896 37.6021 32.0146 37.6292C31.705 37.6397 31.3973 37.6809 31.0958 37.7521C30.3396 37.9292 29.6312 38.375 27.5833 39.7396L24.7042 41.6604L24.4125 41.8542C22.2 43.3312 20.6625 44.3562 18.8625 44.5979C17.0646 44.8396 15.3104 44.2542 12.7896 43.4104L12.4562 43.3L9.95208 42.4667C8.9875 42.1437 8.13958 41.8625 7.47083 41.55C6.74583 41.2125 6.08125 40.7792 5.57292 40.0708C5.06458 39.3667 4.8625 38.6 4.77083 37.8042C4.6875 37.0687 4.6875 36.1792 4.6875 35.1604V18.0521C4.6875 16.5958 4.6875 15.3687 4.8 14.4C4.91667 13.3917 5.17917 12.3958 5.91458 11.5917C6.34993 11.115 6.87904 10.7334 7.46875 10.4708C8.46458 10.0271 9.49375 10.0937 10.4854 10.3021C11.4437 10.5 12.6062 10.8896 13.9854 11.35L14.075 11.3792C16.4083 12.1562 17.2104 12.4 17.9875 12.3729C18.2964 12.3623 18.6034 12.3211 18.9042 12.25C19.6604 12.0708 20.3687 11.625 22.4167 10.2625L25.2958 8.34166L25.5875 8.14582C27.8 6.67082 29.3375 5.64582 31.1354 5.40416C32.9354 5.16249 34.6896 5.74582 37.2104 6.58957ZM32.8125 8.55416V34.5417C33.9292 34.6625 35.1042 35.0542 36.6521 35.5708L36.9125 35.6583C38.4062 36.1562 39.3958 36.4833 40.1521 36.6417C40.8938 36.7958 41.1458 36.725 41.2604 36.675C41.4572 36.5877 41.6338 36.4608 41.7792 36.3021C41.8625 36.2104 42.0083 35.9917 42.0958 35.2396C42.1854 34.4729 42.1875 33.4292 42.1875 31.8562V14.9229C42.1875 13.7979 42.1854 13.0896 42.125 12.5521C42.0667 12.0542 41.975 11.8687 41.8917 11.7562C41.8104 11.6437 41.6646 11.4958 41.2125 11.2854C40.7208 11.0562 40.0458 10.8312 38.9833 10.475L36.5563 9.66665C34.7083 9.04999 33.6125 8.69999 32.8125 8.55416ZM29.6875 34.9167V9.23749C29.0396 9.61249 28.2083 10.1562 27.0292 10.9417L24.15 12.8625L23.9208 13.0146C22.4875 13.9729 21.4187 14.6854 20.3125 15.0854V40.7646C20.9604 40.3896 21.7917 39.8437 22.9708 39.0583L25.85 37.1396L26.0792 36.9875C27.5125 36.0292 28.5812 35.3167 29.6875 34.9167ZM17.1875 41.4479V15.4583C16.0708 15.3375 14.8958 14.9458 13.3479 14.4292L13.0875 14.3417C11.5937 13.8437 10.6042 13.5167 9.84583 13.3583C9.10625 13.2042 8.85417 13.2729 8.74167 13.3229C8.54398 13.4105 8.36663 13.5382 8.22083 13.6979C8.1375 13.7875 7.99167 14.0062 7.90417 14.7583C7.81458 15.525 7.8125 16.5708 7.8125 18.1437V35.0771C7.8125 36.2021 7.81458 36.9104 7.875 37.4479C7.93333 37.9458 8.025 38.1292 8.10833 38.2437C8.18958 38.3562 8.33542 38.5042 8.7875 38.7146C9.27917 38.9437 9.95417 39.1687 11.0167 39.525L13.4437 40.3333C15.2917 40.9479 16.3854 41.2979 17.1875 41.4458V41.4479Z" fill="#333333"/>
</svg>
