<svg width="50" height="50" viewBox="0 0 50 50" fill="none" xmlns="http://www.w3.org/2000/svg">
<g clip-path="url(#clip0_843_20377)">
<path fill-rule="evenodd" clip-rule="evenodd" d="M20.2188 0.000862122H29.7812C34.0555 0.000862122 37.4414 0.000862122 40.0902 0.356664C42.8157 0.724093 45.0226 1.49616 46.7644 3.23563C48.5038 4.97743 49.2759 7.18433 49.6433 9.90982C49.9991 12.5609 49.9991 15.9445 49.9991 20.2188V22.8001C49.9991 24.3419 49.9991 25.7395 49.9689 26.9976C50.0171 27.2497 50.0092 27.5094 49.9456 27.758C49.9061 28.7906 49.841 29.7231 49.7294 30.5626C49.4457 32.6555 48.8457 34.4183 47.4457 35.8182C46.0458 37.2182 44.2831 37.8182 42.1901 38.1019C40.1739 38.3716 37.6089 38.3716 34.4299 38.3716H26.7441V46.5109H34.302C34.7646 46.5109 35.2082 46.6946 35.5353 47.0217C35.8624 47.3488 36.0461 47.7924 36.0461 48.255C36.0461 48.7176 35.8624 49.1612 35.5353 49.4883C35.2082 49.8154 34.7646 49.9991 34.302 49.9991H15.698C15.2354 49.9991 14.7918 49.8154 14.4647 49.4883C14.1376 49.1612 13.9539 48.7176 13.9539 48.255C13.9539 47.7924 14.1376 47.3488 14.4647 47.0217C14.7918 46.6946 15.2354 46.5109 15.698 46.5109H23.2559V38.3716H15.5701C12.3911 38.3716 9.82611 38.3716 7.8099 38.1019C5.71695 37.8182 3.95422 37.2182 2.55427 35.8182C1.15432 34.4183 0.554337 32.6555 0.272952 30.5626C0.159002 29.7254 0.0938883 28.7906 0.0543548 27.758C-0.0091843 27.5094 -0.0171243 27.2497 0.0310998 26.9976C0.000868294 25.7395 0.000868268 24.3419 0.000868268 22.8024V20.2188C0.000868268 15.9445 0.000868257 12.5586 0.35667 9.90982C0.724099 7.18433 1.49617 4.97743 3.23564 3.23563C4.97744 1.49616 7.18434 0.724093 9.90983 0.356664C12.5609 0.000862122 15.9445 0.000862122 20.2188 0.000862122ZM3.62167 29.0696C3.64958 29.4324 3.68679 29.7743 3.72865 30.0975C3.95887 31.8044 4.37979 32.7067 5.02162 33.3509C5.66579 33.995 6.56808 34.4136 8.27733 34.6438C10.0308 34.8787 12.3609 34.8834 15.698 34.8834H34.302C37.6391 34.8834 39.9669 34.8787 41.725 34.6438C43.4319 34.4136 44.3342 33.9927 44.9784 33.3509C45.6225 32.7067 46.0411 31.8044 46.2714 30.0952C46.3161 29.7543 46.3518 29.4124 46.3783 29.0696H3.62167ZM46.5039 25.5814H3.4961C3.48679 24.707 3.48679 23.7419 3.48679 22.6745V20.349C3.48679 15.9143 3.49144 12.7655 3.81236 10.3726C4.12631 8.03547 4.71698 6.68668 5.70067 5.70299C6.68436 4.7193 8.03315 4.12863 10.3726 3.81468C12.7632 3.49376 15.9119 3.48911 20.3467 3.48911H29.6487C34.0834 3.48911 37.2345 3.49376 39.6251 3.81468C41.9622 4.12863 43.311 4.7193 44.2947 5.70299C45.2784 6.68668 45.869 8.03547 46.183 10.3749C46.5039 12.7655 46.5086 15.9143 46.5086 20.349V22.6745C46.5086 23.7419 46.5086 24.707 46.4993 25.5814H46.5039Z" fill="#333333"/>
</g>
<defs>
<clipPath id="clip0_843_20377">
<rect width="50" height="50" fill="white"/>
</clipPath>
</defs>
</svg>
