<svg width="50" height="51" viewBox="0 0 50 51" fill="none" xmlns="http://www.w3.org/2000/svg">
<path d="M4.16675 23.1665C4.16675 17.2748 4.16675 14.3269 5.998 12.4978C7.82716 10.6665 10.7751 10.6665 16.6667 10.6665H27.0834C32.9751 10.6665 35.923 10.6665 37.7522 12.4978C39.5834 14.3269 39.5834 17.2748 39.5834 23.1665C39.5834 29.0582 39.5834 32.0061 37.7522 33.8353C35.923 35.6665 32.9751 35.6665 27.0834 35.6665H16.6667C10.7751 35.6665 7.82716 35.6665 5.998 33.8353C4.16675 32.0061 4.16675 29.0582 4.16675 23.1665Z" stroke="white" stroke-width="3.125"/>
<path d="M39.5833 17.0752C41.6145 17.2752 42.9812 17.7273 44.002 18.7481C45.8354 20.5773 45.8354 23.5252 45.8354 29.4169C45.8354 35.3085 45.8354 38.2564 44.002 40.0856C42.1729 41.9189 39.2249 41.9189 33.3354 41.9189H22.9187C17.0229 41.9189 14.077 41.9189 12.2479 40.0856C11.227 39.0648 10.775 37.6981 10.575 35.6669" stroke="white" stroke-width="3.125"/>
<path d="M27.0834 23.1668C27.0834 24.5482 26.5347 25.8729 25.5579 26.8497C24.5812 27.8264 23.2564 28.3752 21.8751 28.3752C20.4937 28.3752 19.169 27.8264 18.1922 26.8497C17.2155 25.8729 16.6667 24.5482 16.6667 23.1668C16.6667 21.7855 17.2155 20.4607 18.1922 19.484C19.169 18.5072 20.4937 17.9585 21.8751 17.9585C23.2564 17.9585 24.5812 18.5072 25.5579 19.484C26.5347 20.4607 27.0834 21.7855 27.0834 23.1668Z" stroke="white" stroke-width="3.125"/>
<path d="M33.3334 27.3333V19M10.4167 27.3333V19" stroke="white" stroke-width="3.125" stroke-linecap="round"/>
</svg>
