<svg width="50" height="51" viewBox="0 0 50 51" fill="none" xmlns="http://www.w3.org/2000/svg">
<path d="M25.0001 46.0832C36.506 46.0832 45.8334 36.7558 45.8334 25.2498C45.8334 13.7439 36.506 4.4165 25.0001 4.4165C13.4941 4.4165 4.16675 13.7439 4.16675 25.2498C4.16675 36.7558 13.4941 46.0832 25.0001 46.0832Z" stroke="white" stroke-width="3.125"/>
<path d="M25 31.5C28.4518 31.5 31.25 28.7018 31.25 25.25C31.25 21.7982 28.4518 19 25 19C21.5482 19 18.75 21.7982 18.75 25.25C18.75 28.7018 21.5482 31.5 25 31.5Z" stroke="white" stroke-width="3.125"/>
<path d="M4.16675 27.3335C4.16675 27.3335 8.75008 31.5002 12.5001 31.5002C15.0251 31.5002 17.9292 29.6085 19.5563 28.3752M29.1667 29.8835C30.148 30.7481 31.4334 31.5002 32.9272 31.5002C36.448 31.5002 36.448 27.3335 39.9688 27.3335C42.2126 27.3335 43.9792 29.0293 44.9667 30.2564" stroke="white" stroke-width="3.125"/>
<path d="M30.2083 14.8335L33.3333 10.6668M39.5833 14.8335L41.6666 12.7502M25 10.6668L22.9166 8.5835M21.875 14.8335L19.0291 15.596M34.6875 18.9522L34.825 21.8939M43.0791 21.2606L39.5833 24.3397M14.5833 10.6668L12.5 8.5835M14.15 19.3002L12.9312 16.6168M11.8021 26.5877L13.5416 24.2085M7.67288 21.8127L7.5083 18.871" stroke="white" stroke-width="3.125" stroke-linecap="round"/>
</svg>
