<svg width="50" height="50" viewBox="0 0 50 50" fill="none" xmlns="http://www.w3.org/2000/svg">
<g clip-path="url(#clip0_843_20379)">
<path d="M3.125 40.625C2.23958 40.625 1.49792 40.325 0.9 39.725C0.302084 39.125 0.00208333 38.3833 0 37.5V25C0 24.1146 0.3 23.3729 0.9 22.775C1.5 22.1771 2.24167 21.8771 3.125 21.875C4.01042 21.875 4.75312 22.175 5.35312 22.775C5.95312 23.375 6.25208 24.1167 6.25 25V37.5C6.25 38.3854 5.95 39.1281 5.35 39.7281C4.75 40.3281 4.00833 40.6271 3.125 40.625ZM15.625 40.625C13.9062 40.625 12.4354 40.0136 11.2125 38.7906C9.98958 37.5677 9.37708 36.0958 9.375 34.375V15.625C9.375 13.9062 9.9875 12.4354 11.2125 11.2125C12.4375 9.98958 13.9083 9.37708 15.625 9.37499H21.875C23.5937 9.37499 25.0656 9.98749 26.2906 11.2125C27.5156 12.4375 28.1271 13.9083 28.125 15.625V34.375C28.125 36.0938 27.5135 37.5656 26.2906 38.7906C25.0677 40.0156 23.5958 40.6271 21.875 40.625H15.625ZM15.625 34.375H21.875V15.625H15.625V34.375ZM34.375 40.625C33.4896 40.625 32.7479 40.325 32.15 39.725C31.5521 39.125 31.2521 38.3833 31.25 37.5C31.25 36.6146 31.55 35.8729 32.15 35.275C32.75 34.6771 33.4917 34.3771 34.375 34.375H43.75V28.125H37.5C35.7812 28.125 34.3104 27.5135 33.0875 26.2906C31.8646 25.0677 31.2521 23.5958 31.25 21.875V15.625C31.25 13.9062 31.8625 12.4354 33.0875 11.2125C34.3125 9.98958 35.7833 9.37708 37.5 9.37499H46.875C47.7604 9.37499 48.5031 9.67499 49.1031 10.275C49.7031 10.875 50.0021 11.6167 50 12.5C50 13.3854 49.7 14.1281 49.1 14.7281C48.5 15.3281 47.7583 15.6271 46.875 15.625H37.5V21.875H43.75C45.4687 21.875 46.9406 22.4875 48.1656 23.7125C49.3906 24.9375 50.0021 26.4083 50 28.125V34.375C50 36.0938 49.3885 37.5656 48.1656 38.7906C46.9427 40.0156 45.4708 40.6271 43.75 40.625H34.375ZM3.125 15.625C2.23958 15.625 1.49792 15.325 0.9 14.725C0.302084 14.125 0.00208333 13.3833 0 12.5C0 11.6146 0.3 10.8729 0.9 10.275C1.5 9.67708 2.24167 9.37708 3.125 9.37499C4.01042 9.37499 4.75312 9.67499 5.35312 10.275C5.95312 10.875 6.25208 11.6167 6.25 12.5C6.25 13.3854 5.95 14.1281 5.35 14.7281C4.75 15.3281 4.00833 15.6271 3.125 15.625Z" fill="#333333"/>
</g>
<defs>
<clipPath id="clip0_843_20379">
<rect width="50" height="50" fill="white"/>
</clipPath>
</defs>
</svg>
