<svg width="50" height="50" viewBox="0 0 50 50" fill="none" xmlns="http://www.w3.org/2000/svg">
<path fill-rule="evenodd" clip-rule="evenodd" d="M24.8853 3H25.1145C28.8762 3 31.8561 3 34.1872 3.31312C36.5858 3.63647 38.5281 4.31591 40.061 5.8467C41.5919 7.37954 42.2714 9.32167 42.5947 11.7202C42.9079 14.0532 42.9079 17.0309 42.9079 20.7924V29.2076C42.9079 32.9691 42.9079 35.9488 42.5947 38.2798C42.2714 40.6783 41.5919 42.6205 40.061 44.1533C38.5281 45.6841 36.5858 46.3635 34.1872 46.6869C31.854 47 28.8762 47 25.1145 47H24.8853C21.1236 47 18.1437 47 15.8126 46.6869C13.4139 46.3635 11.4717 45.6841 9.93875 44.1533C8.40787 42.6205 7.72839 40.6783 7.40502 38.2798C7.09189 35.9468 7.09189 32.9691 7.09189 29.2076V20.7924C7.09189 17.0309 7.09189 14.0512 7.40502 11.7202C7.72839 9.32167 8.40787 7.37954 9.93875 5.8467C11.4717 4.31591 13.4139 3.63647 15.8126 3.31312C18.1457 3 21.1236 3 24.8853 3ZM16.2198 6.35628C14.1609 6.63256 12.9739 7.15237 12.1061 8.01805C11.2424 8.88372 10.7226 10.0707 10.4463 12.1295C10.1639 14.2333 10.1598 17.0043 10.1598 20.907V29.093C10.1598 32.9957 10.1639 35.7687 10.4463 37.8726C10.7226 39.9293 11.2425 41.1163 12.1082 41.982C12.9739 42.8476 14.1609 43.3674 16.2198 43.6437C18.3238 43.9261 21.0949 43.9302 24.9978 43.9302C28.9008 43.9302 31.6739 43.9261 33.7779 43.6437C35.8347 43.3674 37.0218 42.8476 37.8875 41.982C38.7532 41.1163 39.2731 39.9293 39.5494 37.8705C39.8318 35.7687 39.8359 32.9957 39.8359 29.093V20.907C39.8359 17.0043 39.8318 14.2333 39.5494 12.1274C39.2731 10.0707 38.7532 8.88372 37.8875 8.01805C37.0218 7.15237 35.8347 6.63256 33.7758 6.35628C31.6719 6.07386 28.9008 6.06977 24.9978 6.06977C21.0949 6.06977 18.3258 6.07386 16.2198 6.35628ZM17.325 39.3256C17.325 38.9185 17.4867 38.5281 17.7746 38.2403C18.0625 37.9524 18.4529 37.7907 18.86 37.7907H31.1398C31.5469 37.7907 31.9373 37.9524 32.2252 38.2403C32.513 38.5281 32.6747 38.9185 32.6747 39.3256C32.6747 39.7327 32.513 40.1231 32.2252 40.4109C31.9373 40.6988 31.5469 40.8605 31.1398 40.8605H18.86C18.4529 40.8605 18.0625 40.6988 17.7746 40.4109C17.4867 40.1231 17.325 39.7327 17.325 39.3256Z" fill="#333333"/>
</svg>
