<svg width="200" height="200" viewBox="0 0 200 200" fill="none" xmlns="http://www.w3.org/2000/svg">
<path fill-rule="evenodd" clip-rule="evenodd" d="M70.9333 36.9172C72.1923 35.8404 73.8273 35.3076 75.4789 35.4357C77.1306 35.5639 78.6638 36.3425 79.7417 37.6005L129.742 95.9338C130.712 97.0665 131.246 98.5089 131.246 100C131.246 101.492 130.712 102.934 129.742 104.067L79.7417 162.4C78.646 163.597 77.1279 164.321 75.5085 164.418C73.889 164.516 72.295 163.98 71.0635 162.924C69.832 161.867 69.0594 160.374 68.9092 158.758C68.7589 157.143 69.2427 155.532 70.2583 154.267L116.767 100L70.2583 45.7338C69.1796 44.4769 68.6439 42.8433 68.7689 41.1917C68.8939 39.5401 69.6694 38.0057 70.925 36.9255L70.9333 36.9172Z" fill="#BDBDBD"/>
</svg>
