<svg width="50" height="50" viewBox="0 0 50 50" fill="none" xmlns="http://www.w3.org/2000/svg">
<path fill-rule="evenodd" clip-rule="evenodd" d="M35.7107 4.94583C33.7857 4.6875 31.3357 4.6875 28.2774 4.6875H21.3587C18.3024 4.6875 15.8503 4.6875 13.9253 4.94583C11.9316 5.2125 10.2691 5.78125 8.95033 7.09583C7.57533 8.46667 7.01074 10.2104 6.75658 12.3125L6.74408 12.4167L6.75033 12.8229C6.30074 13.1167 5.88257 13.456 5.50241 13.8354C3.94408 15.3958 3.25241 17.3729 2.92324 19.8146C2.60449 22.1896 2.60449 25.2208 2.60449 29.05V30.1854C2.60658 33.5708 2.63158 36.3458 2.92324 38.5187C3.25241 40.9604 3.94408 42.9375 5.50241 44.4979C7.06283 46.0562 9.03991 46.7479 11.4816 47.0771C13.8566 47.3958 16.8878 47.3958 20.717 47.3958H29.2837C33.1128 47.3958 36.1462 47.3958 38.5191 47.0771C40.9607 46.7479 42.9378 46.0562 44.4982 44.4979C46.0566 42.9375 46.7482 40.9604 47.0774 38.5187C47.3962 36.1437 47.3962 33.1125 47.3962 29.2833V29.05C47.3962 25.2208 47.3962 22.1875 47.0774 19.8146C46.7482 17.3729 46.0566 15.3958 44.4982 13.8354C44.0184 13.3552 43.4777 12.9398 42.8899 12.6V12.4062L42.8795 12.3125C42.6253 10.2104 42.0628 8.46667 40.6857 7.09583C39.367 5.78333 37.7066 5.2125 35.7107 4.94583ZM5.73158 30.9167C5.73783 33.9896 5.77741 36.2917 6.02116 38.1042C6.30241 40.1979 6.83158 41.4062 7.71283 42.2875C8.59408 43.1687 9.80241 43.6979 11.8982 43.9792C14.0399 44.2667 16.8607 44.2708 20.8337 44.2708H29.167C33.1399 44.2708 35.9628 44.2667 38.1045 43.9792C39.6941 43.7667 40.7732 43.4104 41.5878 42.8646L35.9899 37.825C35.2009 37.1147 34.1942 36.6933 33.1345 36.6297C32.0748 36.5661 31.0248 36.8642 30.1566 37.475L29.5378 37.9125C28.4342 38.6879 27.0924 39.0491 25.7487 38.9325C24.405 38.8159 23.1455 38.2289 22.192 37.275L13.2545 28.3375C12.675 27.7582 11.897 27.4208 11.0781 27.3937C10.2591 27.3666 9.46053 27.6519 8.84408 28.1917L5.73158 30.9167ZM38.0795 35.5021L43.4712 40.3562C43.692 39.7396 43.8587 39.0021 43.9795 38.1021C44.267 35.9625 44.2712 33.1396 44.2712 29.1667C44.2712 25.1937 44.267 22.3729 43.9795 20.2292C43.6982 18.1354 43.1691 16.9271 42.2878 16.0458C41.4066 15.1646 40.1982 14.6354 38.1024 14.3542C35.9628 14.0667 33.1399 14.0625 29.167 14.0625H20.8337C16.8607 14.0625 14.0399 14.0667 11.8962 14.3542C9.80241 14.6354 8.59408 15.1646 7.71283 16.0458C6.83158 16.9271 6.30241 18.1354 6.02116 20.2313C5.79408 21.9125 5.74408 24.0146 5.73366 26.7625L6.78783 25.8396C8.00109 24.7782 9.57242 24.2176 11.1835 24.2714C12.7946 24.3251 14.3251 24.9892 15.4649 26.1292L24.4024 35.0667C24.836 35.4995 25.4084 35.7657 26.0188 35.8183C26.6292 35.8709 27.2387 35.7065 27.7399 35.3542L28.3607 34.9167C29.8078 33.8998 31.557 33.4039 33.3225 33.5103C35.0879 33.6166 36.765 34.3188 38.0795 35.5021ZM11.1545 9.3125C10.6545 9.81042 10.2962 10.4604 10.0587 11.5062C10.5294 11.4043 11.0041 11.3216 11.4816 11.2583C13.8566 10.9396 16.8878 10.9396 20.717 10.9396H29.2837C33.1128 10.9396 36.1462 10.9396 38.5191 11.2583C38.8753 11.3062 39.2212 11.3625 39.5607 11.4271C39.3212 10.4271 38.967 9.79792 38.4816 9.3125C37.8399 8.67292 36.9462 8.26667 35.2962 8.04583C33.6024 7.81667 31.3607 7.81458 28.1628 7.81458H21.4732C18.2753 7.81458 16.0337 7.81875 14.3399 8.04375C12.6899 8.26667 11.7962 8.67292 11.1545 9.3125Z" fill="#333333"/>
<path fill-rule="evenodd" clip-rule="evenodd" d="M36.459 17.1875C35.8434 17.1875 35.2339 17.3087 34.6652 17.5443C34.0964 17.7799 33.5797 18.1252 33.1444 18.5604C32.7091 18.9957 32.3639 19.5125 32.1283 20.0812C31.8927 20.6499 31.7715 21.2594 31.7715 21.875C31.7715 22.4906 31.8927 23.1001 32.1283 23.6688C32.3639 24.2375 32.7091 24.7543 33.1444 25.1896C33.5797 25.6248 34.0964 25.9701 34.6652 26.2057C35.2339 26.4413 35.8434 26.5625 36.459 26.5625C37.7022 26.5625 38.8945 26.0686 39.7735 25.1896C40.6526 24.3105 41.1465 23.1182 41.1465 21.875C41.1465 20.6318 40.6526 19.4395 39.7735 18.5604C38.8945 17.6814 37.7022 17.1875 36.459 17.1875ZM36.459 20.3125C36.0446 20.3125 35.6472 20.4771 35.3541 20.7701C35.0611 21.0632 34.8965 21.4606 34.8965 21.875C34.8965 22.2894 35.0611 22.6868 35.3541 22.9799C35.6472 23.2729 36.0446 23.4375 36.459 23.4375C36.8734 23.4375 37.2708 23.2729 37.5638 22.9799C37.8569 22.6868 38.0215 22.2894 38.0215 21.875C38.0215 21.4606 37.8569 21.0632 37.5638 20.7701C37.2708 20.4771 36.8734 20.3125 36.459 20.3125Z" fill="#333333"/>
</svg>
