<svg width="50" height="50" viewBox="0 0 50 50" fill="none" xmlns="http://www.w3.org/2000/svg">
<path d="M27.6126 40.4666C27.3195 40.1735 26.9219 40.0088 26.5074 40.0088C26.0928 40.0088 25.6953 40.1735 25.4022 40.4666C25.109 40.7598 24.9444 41.1573 24.9444 41.5718C24.9444 41.9864 25.109 42.3839 25.4022 42.677L27.6126 40.4666ZM7.323 24.6C7.46604 24.7535 7.63854 24.8766 7.83021 24.962C8.02188 25.0474 8.22878 25.0933 8.43858 25.097C8.64837 25.1007 8.85677 25.0621 9.05133 24.9836C9.24589 24.905 9.42262 24.788 9.57099 24.6396C9.71937 24.4913 9.83633 24.3145 9.91492 24.12C9.99351 23.9254 10.0321 23.717 10.0284 23.5072C10.0247 23.2974 9.97878 23.0905 9.89338 22.8988C9.80798 22.7072 9.68484 22.5347 9.53133 22.3916L7.323 24.6ZM23.4938 8.42913L24.598 9.5333C24.8906 9.24033 25.055 8.8432 25.055 8.42913C25.055 8.01507 24.8906 7.61794 24.598 7.32497L23.4938 8.42913ZM41.573 26.5083L42.6772 25.4041C42.3842 25.1115 41.9871 24.9472 41.573 24.9472C41.1589 24.9472 40.7618 25.1115 40.4688 25.4041L41.573 26.5083ZM17.3667 12.3458C17.0907 12.642 16.9405 13.0338 16.9476 13.4386C16.9548 13.8433 17.1188 14.2296 17.405 14.5158C17.6913 14.8021 18.0775 14.9661 18.4823 14.9732C18.8871 14.9804 19.2789 14.8301 19.5751 14.5541L17.3667 12.3458ZM35.4459 30.4229C35.1611 30.7174 35.0035 31.1121 35.0068 31.5217C35.0102 31.9314 35.1743 32.3234 35.4639 32.6132C35.7535 32.9031 36.1453 33.0676 36.555 33.0713C36.9647 33.0751 37.3594 32.9178 37.6542 32.6333L35.4459 30.4229ZM10.3334 7.32288L7.323 10.3354L9.53133 12.5479L12.5459 9.5333L10.3334 7.32288ZM39.6626 42.677L42.6751 39.6645L40.4667 37.4541L37.4522 40.4666L39.6626 42.677ZM25.4022 42.677C26.7917 44.0666 27.9397 45.2208 28.973 46.0104C30.0438 46.827 31.1688 47.3958 32.5313 47.3958V44.2708C32.1272 44.2708 31.6605 44.1291 30.8688 43.525C30.0417 42.8937 29.0626 41.9208 27.6126 40.4666L25.4022 42.677ZM37.4522 40.4666C36.0001 41.9166 35.0209 42.8937 34.1917 43.525C33.4001 44.1291 32.9334 44.2708 32.5313 44.2708V47.3958C33.8917 47.3958 35.0188 46.827 36.0876 46.0104C37.123 45.2208 38.273 44.0666 39.6626 42.677L37.4522 40.4666ZM7.323 10.3354C5.93341 11.725 4.77925 12.875 3.98966 13.9083C3.173 14.9771 2.60425 16.1041 2.60425 17.4646H5.72925C5.72925 17.0625 5.87091 16.5958 6.47508 15.8041C7.10633 14.975 8.07925 13.9958 9.53341 12.5437L7.323 10.3354ZM9.53133 22.3854C8.08341 20.9375 7.10841 19.9583 6.47716 19.1312C5.873 18.3395 5.73133 17.8729 5.73133 17.4687H2.60633C2.60633 18.8312 3.17508 19.9562 3.99175 21.0271C4.78133 22.0604 5.93341 23.2104 7.323 24.6L9.53133 22.3854ZM24.598 7.3208C23.2084 5.93122 22.0584 4.77705 21.0251 3.98747C19.9542 3.1708 18.8292 2.60205 17.4667 2.60205V5.72705C17.8709 5.72705 18.3376 5.86872 19.1292 6.47288C19.9563 7.10413 20.9376 8.07705 22.3876 9.53122L24.598 7.3208ZM12.5459 9.52913C13.998 8.07913 14.9772 7.10413 15.8063 6.47288C16.598 5.86872 17.0647 5.72705 17.4667 5.72705V2.60205C16.1063 2.60205 14.9792 3.1708 13.9105 3.98747C12.8751 4.77705 11.7251 5.93122 10.3355 7.3208L12.5459 9.52913ZM40.4667 27.6104C41.9188 29.0604 42.8938 30.0416 43.5251 30.8687C44.1292 31.6604 44.2709 32.1271 44.2709 32.5312H47.3959C47.3959 31.1687 46.8272 30.0437 46.0105 28.9729C45.2209 27.9395 44.0667 26.7896 42.6772 25.4L40.4667 27.6104ZM42.6772 39.6625C44.0667 38.2729 45.2209 37.1208 46.0105 36.0875C46.8272 35.0187 47.3959 33.8916 47.3959 32.5312H44.2709C44.2709 32.9333 44.1292 33.4 43.5251 34.1916C42.8938 35.0208 41.9209 36 40.4667 37.452L42.6772 39.6625ZM22.3897 7.32288L17.3667 12.3458L19.5751 14.5541L24.598 9.5333L22.3897 7.32288ZM40.4667 25.4021L35.4459 30.4229L37.6542 32.6333L42.6772 27.6125L40.4667 25.4021Z" fill="#333333"/>
<path d="M29.919 8.49766C29.919 8.49766 30.1585 12.6018 33.7794 16.2206C37.4002 19.8414 41.5023 20.0831 41.5023 20.0831L43.4335 18.1518C44.9699 16.6155 45.833 14.5318 45.833 12.3591C45.833 10.1864 44.9699 8.10273 43.4335 6.56641C41.8972 5.03009 39.8135 4.16699 37.6408 4.16699C35.4681 4.16699 33.3844 5.03009 31.8481 6.56641L29.9169 8.49766L12.1627 26.2477C10.9606 27.4518 10.3585 28.0539 9.84187 28.7164C9.23168 29.4982 8.70845 30.3442 8.28145 31.2393C7.92104 31.9977 7.65229 32.806 7.11479 34.4185L5.39395 39.5831L4.8377 41.2539M4.8377 41.2539L4.27937 42.9247C4.14877 43.3142 4.1294 43.7324 4.22342 44.1323C4.31744 44.5321 4.52113 44.8979 4.8116 45.1883C5.10207 45.4788 5.4678 45.6825 5.86768 45.7765C6.26755 45.8706 6.68573 45.8512 7.0752 45.7206L8.74604 45.1622M4.8377 41.2539L8.74604 45.1622M41.5044 20.0831L23.7502 37.8331C22.5481 39.0352 21.946 39.6372 21.2835 40.1539C20.5017 40.7641 19.6558 41.2874 18.7606 41.7143C18.0023 42.0747 17.196 42.3435 15.5815 42.881L10.4169 44.606L8.74604 45.1622" stroke="#333333" stroke-width="3.125"/>
</svg>
