<svg width="50" height="50" viewBox="0 0 50 50" fill="none" xmlns="http://www.w3.org/2000/svg">
<path d="M4.16666 21.8743C4.16666 31.6535 13.4937 39.5827 25 39.5827C26.4306 39.5813 27.8194 39.4632 29.1667 39.2285V45.8327C32.6458 42.4264 38.5417 36.4577 42.2 31.8681C44.4917 29.0243 45.8333 25.5827 45.8333 21.8743C45.8333 12.0952 36.5062 4.16602 25 4.16602C13.4937 4.16602 4.16666 12.0952 4.16666 21.8743Z" stroke="#4F4F4F" stroke-width="3.125" stroke-linecap="round" stroke-linejoin="round"/>
<path d="M12.5 17.707V26.0404H14.5833M18.75 17.707V26.0404M23.125 26.0404V17.707L28.125 26.0404V17.707M36.4583 17.707H32.5V21.8737M32.5 21.8737V26.0404H36.4583M32.5 21.8737H35.5" stroke="#4F4F4F" stroke-width="3.125" stroke-linecap="round" stroke-linejoin="round"/>
</svg>
