<svg width="50" height="51" viewBox="0 0 50 51" fill="none" xmlns="http://www.w3.org/2000/svg">
<path d="M24.9998 21.5832C29.6022 21.5832 33.3332 17.8522 33.3332 13.2498C33.3332 8.64746 29.6022 4.9165 24.9998 4.9165C20.3975 4.9165 16.6665 8.64746 16.6665 13.2498C16.6665 17.8522 20.3975 21.5832 24.9998 21.5832Z" stroke="white" stroke-width="3.125"/>
<path d="M37.5 19.5002C40.9521 19.5002 43.75 17.1668 43.75 14.2918C43.75 11.4168 40.9521 9.0835 37.5 9.0835M12.5 19.5002C9.04792 19.5002 6.25 17.1668 6.25 14.2918C6.25 11.4168 9.04792 9.0835 12.5 9.0835" stroke="white" stroke-width="3.125" stroke-linecap="round"/>
<path d="M25 44.5002C31.9036 44.5002 37.5 40.7692 37.5 36.1668C37.5 31.5645 31.9036 27.8335 25 27.8335C18.0964 27.8335 12.5 31.5645 12.5 36.1668C12.5 40.7692 18.0964 44.5002 25 44.5002Z" stroke="white" stroke-width="3.125"/>
<path d="M41.6666 40.3332C45.3208 39.5311 47.9166 37.5019 47.9166 35.1248C47.9166 32.7478 45.3208 30.7186 41.6666 29.9165M8.33325 40.3332C4.67909 39.5311 2.08325 37.5019 2.08325 35.1248C2.08325 32.7478 4.67909 30.7186 8.33325 29.9165" stroke="white" stroke-width="3.125" stroke-linecap="round"/>
</svg>
