<svg width="50" height="50" viewBox="0 0 50 50" fill="none" xmlns="http://www.w3.org/2000/svg">
<path d="M14.5833 17.709L20.7125 21.334C24.2854 23.4465 25.7125 23.4465 29.2875 21.334L35.4167 17.709" stroke="#4F4F4F" stroke-width="3.125" stroke-linecap="round" stroke-linejoin="round"/>
<path d="M4.20002 28.0755C4.33543 34.4609 4.40418 37.6546 6.76043 40.0192C9.11668 42.3859 12.3958 42.4671 18.9563 42.6317C22.9979 42.7359 27.0021 42.7359 31.0438 42.6317C37.6042 42.4671 40.8833 42.3859 43.2396 40.0192C45.5958 37.6546 45.6646 34.4609 45.8021 28.0755C45.8438 26.0213 45.8438 23.9796 45.8021 21.9255C45.6646 15.54 45.5958 12.3463 43.2396 9.98171C40.8833 7.61504 37.6042 7.53379 31.0438 7.36921C27.0152 7.26755 22.9848 7.26755 18.9563 7.36921C12.3958 7.53379 9.11668 7.61504 6.76043 9.98171C4.40418 12.3463 4.33543 15.54 4.19793 21.9255C4.15407 23.9752 4.15616 26.0257 4.20002 28.0755Z" stroke="#4F4F4F" stroke-width="3.125" stroke-linecap="round" stroke-linejoin="round"/>
</svg>
