<svg width="50" height="50" viewBox="0 0 50 50" fill="none" xmlns="http://www.w3.org/2000/svg">
<path d="M14.5833 20.834V35.4173M22.9167 27.084V35.4173M22.9167 27.084C22.9167 26.2632 23.0783 25.4505 23.3924 24.6922C23.7065 23.9339 24.1669 23.2449 24.7472 22.6646C25.3276 22.0842 26.0166 21.6238 26.7749 21.3097C27.5332 20.9956 28.3459 20.834 29.1667 20.834C29.9874 20.834 30.8001 20.9956 31.5584 21.3097C32.3167 21.6238 33.0057 22.0842 33.5861 22.6646C34.1664 23.2449 34.6268 23.9339 34.9409 24.6922C35.255 25.4505 35.4167 26.2632 35.4167 27.084V35.4173M22.9167 27.084V20.834M14.6 14.584H14.5812" stroke="#4F4F4F" stroke-width="3.125" stroke-linecap="round" stroke-linejoin="round"/>
<path d="M5.20833 25.0007C5.20833 15.6715 5.20833 11.0048 8.10624 8.1069C11.0042 5.20898 15.6687 5.20898 25 5.20898C34.3292 5.20898 38.9958 5.20898 41.8937 8.1069C44.7917 11.0048 44.7917 15.6694 44.7917 25.0007C44.7917 34.3298 44.7917 38.9965 41.8937 41.8944C38.9958 44.7923 34.3312 44.7923 25 44.7923C15.6708 44.7923 11.0042 44.7923 8.10624 41.8944C5.20833 38.9965 5.20833 34.3319 5.20833 25.0007Z" stroke="#4F4F4F" stroke-width="3.125" stroke-linecap="round" stroke-linejoin="round"/>
</svg>
