<svg width="50" height="50" viewBox="0 0 50 50" fill="none" xmlns="http://www.w3.org/2000/svg">
<path d="M5.20833 25.0007C5.20833 15.6715 5.20833 11.0048 8.10625 8.1069C11.0042 5.20898 15.6688 5.20898 25 5.20898C34.3292 5.20898 38.9958 5.20898 41.8937 8.1069C44.7917 11.0048 44.7917 15.6694 44.7917 25.0007C44.7917 34.3298 44.7917 38.9965 41.8937 41.8944C38.9958 44.7923 34.3312 44.7923 25 44.7923C15.6708 44.7923 11.0042 44.7923 8.10625 41.8944C5.20833 38.9965 5.20833 34.3319 5.20833 25.0007Z" stroke="#4F4F4F" stroke-width="3.125" stroke-linecap="round" stroke-linejoin="round"/>
<path d="M36.475 13.543H36.4542M34.375 25.0013C34.375 27.4877 33.3873 29.8723 31.6291 31.6304C29.871 33.3886 27.4864 34.3763 25 34.3763C22.5136 34.3763 20.129 33.3886 18.3709 31.6304C16.6127 29.8723 15.625 27.4877 15.625 25.0013C15.625 22.5149 16.6127 20.1303 18.3709 18.3722C20.129 16.614 22.5136 15.6263 25 15.6263C27.4864 15.6263 29.871 16.614 31.6291 18.3722C33.3873 20.1303 34.375 22.5149 34.375 25.0013Z" stroke="#4F4F4F" stroke-width="3.125" stroke-linecap="round" stroke-linejoin="round"/>
</svg>
