<svg width="50" height="50" viewBox="0 0 50 50" fill="none" xmlns="http://www.w3.org/2000/svg">
<g clip-path="url(#clip0_843_20375)">
<path fill-rule="evenodd" clip-rule="evenodd" d="M39.6279 8.46512C37.2372 8.14418 34.086 8.13953 29.6512 8.13953H20.3488C15.914 8.13953 12.7651 8.14418 10.3721 8.46512C8.03488 8.77907 6.68605 9.36977 5.70233 10.3535C4.7186 11.3372 4.12791 12.686 3.81395 15.0256C3.49302 17.4163 3.48837 20.5651 3.48837 25C3.48837 29.4349 3.49302 32.5861 3.81395 34.9767C4.12791 37.314 4.7186 38.6628 5.70233 39.6465C6.68605 40.6302 8.03488 41.2209 10.3744 41.5349C12.7651 41.8558 15.914 41.8605 20.3488 41.8605H29.6512C34.086 41.8605 37.2372 41.8558 39.6279 41.5349C41.9651 41.2209 43.314 40.6302 44.2977 39.6465C45.2814 38.6628 45.8721 37.314 46.186 34.9744C46.507 32.5837 46.5116 29.4349 46.5116 25C46.5116 20.5651 46.507 17.4163 46.186 15.0233C45.8721 12.686 45.2814 11.3372 44.2977 10.3535C43.314 9.36977 41.9651 8.77907 39.6256 8.46512H39.6279ZM40.0907 5.00698C42.8163 5.37442 45.0233 6.14651 46.7651 7.88604C48.5046 9.62791 49.2767 11.8349 49.6442 14.5605C50 17.2116 50 20.5954 50 24.8698V25.1302C50 29.4047 50 32.7907 49.6442 35.4395C49.2767 38.1651 48.5046 40.3721 46.7651 42.114C45.0233 43.8535 42.8163 44.6256 40.0907 44.993C37.4395 45.3488 34.0558 45.3488 29.7814 45.3488H20.2186C15.9442 45.3488 12.5581 45.3488 9.9093 44.993C7.18372 44.6256 4.97674 43.8535 3.23488 42.114C1.49535 40.3721 0.723256 38.1651 0.355814 35.4395C0 32.7884 0 29.4047 0 25.1302V24.8698C0 20.5954 0 17.2093 0.355814 14.5605C0.723256 11.8349 1.49535 9.62791 3.23488 7.88604C4.97674 6.14651 7.18372 5.37442 9.9093 5.00698C12.5605 4.65116 15.9442 4.65116 20.2186 4.65116H29.7814C34.0558 4.65116 37.4419 4.65116 40.0907 5.00698ZM16.2791 36.6279C16.2791 36.1653 16.4628 35.7217 16.7899 35.3946C17.117 35.0675 17.5607 34.8837 18.0233 34.8837H31.9767C32.4393 34.8837 32.883 35.0675 33.2101 35.3946C33.5372 35.7217 33.7209 36.1653 33.7209 36.6279C33.7209 37.0905 33.5372 37.5341 33.2101 37.8612C32.883 38.1883 32.4393 38.3721 31.9767 38.3721H18.0233C17.5607 38.3721 17.117 38.1883 16.7899 37.8612C16.4628 37.5341 16.2791 37.0905 16.2791 36.6279Z" fill="#333333"/>
</g>
<defs>
<clipPath id="clip0_843_20375">
<rect width="50" height="50" fill="white"/>
</clipPath>
</defs>
</svg>
