<svg width="50" height="51" viewBox="0 0 50 51" fill="none" xmlns="http://www.w3.org/2000/svg">
<path d="M24.9998 36.1667C33.054 36.1667 39.5832 29.6375 39.5832 21.5833C39.5832 13.5292 33.054 7 24.9998 7C16.9457 7 10.4165 13.5292 10.4165 21.5833C10.4165 29.6375 16.9457 36.1667 24.9998 36.1667Z" stroke="white" stroke-width="3.125"/>
<path d="M8.33325 35.254C10.3463 37.51 12.814 39.3145 15.5741 40.549C18.3342 41.7834 21.3243 42.4199 24.3478 42.4165C36.2145 42.4165 45.8333 32.7978 45.8333 20.9311C45.8333 14.5686 43.0666 8.84984 38.6708 4.9165" stroke="white" stroke-width="3.125" stroke-linecap="round"/>
<path d="M14.5833 10.2356C15.802 11.3856 18.3124 14.5335 18.6062 17.9106C18.8791 21.0668 20.8895 23.6314 23.9583 23.6668C25.1374 23.6793 26.3312 22.796 26.327 21.5731C26.327 21.1939 26.2645 20.8085 26.1728 20.4522C26.0171 19.9059 26.063 19.3218 26.302 18.8064C27.2541 16.7689 29.1291 16.221 30.6145 15.1147C31.2728 14.6231 31.8728 14.1064 32.1395 13.6897C32.8687 12.5377 33.602 10.2356 33.2353 9.0835M39.5833 23.6668C39.1249 24.9585 38.802 28.3543 33.6353 28.4085C33.6353 28.4085 29.0624 28.4085 27.6895 30.9939C26.5916 33.0627 27.2312 35.3064 27.6895 36.1668" stroke="white" stroke-width="3.125"/>
<path d="M24.9999 46.5832V42.4165M24.9999 46.5832H20.8333M24.9999 46.5832H29.1666" stroke="white" stroke-width="3.125" stroke-linecap="round"/>
</svg>
