<svg width="50" height="50" viewBox="0 0 50 50" fill="none" xmlns="http://www.w3.org/2000/svg">
<path d="M22.9167 35.4165H16.6667C10.7751 35.4165 7.82716 35.4165 5.998 33.5853C4.16675 31.7561 4.16675 28.8082 4.16675 22.9165V20.8332C4.16675 12.9769 4.16675 9.04775 6.60841 6.60817C9.048 4.1665 12.9772 4.1665 20.8334 4.1665H32.2917C37.1563 4.1665 39.5876 4.1665 41.4292 5.14984C42.8827 5.92676 44.0732 7.11721 44.8501 8.57067C45.8334 10.4123 45.8334 12.8436 45.8334 17.7082" stroke="#333333" stroke-width="3.125" stroke-linecap="round"/>
<path d="M29.1667 31.2498C29.1667 27.3207 29.1667 25.3582 30.3876 24.1373C31.6084 22.9165 33.5709 22.9165 37.5001 22.9165C41.4292 22.9165 43.3917 22.9165 44.6126 24.1373C45.8334 25.3582 45.8334 27.3207 45.8334 31.2498V37.4998C45.8334 41.429 45.8334 43.3915 44.6126 44.6123C43.3917 45.8332 41.4292 45.8332 37.5001 45.8332C33.5709 45.8332 31.6084 45.8332 30.3876 44.6123C29.1667 43.3915 29.1667 41.429 29.1667 37.4998V31.2498Z" stroke="#333333" stroke-width="3.125"/>
<path d="M39.5834 41.6663H35.4167M16.6667 45.833H22.9167V35.4163M22.9167 27.083H4.16675" stroke="#333333" stroke-width="3.125" stroke-linecap="round"/>
</svg>
