<svg width="512" height="512" viewBox="0 0 512 512" fill="none" xmlns="http://www.w3.org/2000/svg">
<g clip-path="url(#clip0_3447_453)">
<path d="M512 0H0V512H512V0Z" fill="url(#paint0_linear_3447_453)"/>
<path d="M512 0H0V512H512V0Z" fill="url(#paint1_linear_3447_453)"/>
<path d="M385.08 242.4C386.41 243.23 387.8 243.97 389.22 244.79L385.88 254L394.68 257.2C394.81 256.83 394.93 256.51 395.05 256.19C395.98 253.62 396.93 251.06 397.83 248.49C398.05 247.87 398.29 247.67 398.99 247.83C403.19 248.75 407.45 249.21 411.74 248.64C419.84 247.57 426.36 243.98 430.36 236.58C432.32 232.94 433.37 229.05 433.19 224.88C432.97 219.77 430.71 215.58 427.25 211.95C423.77 208.3 419.77 205.3 415.55 202.58C414.9 202.16 414.77 201.8 415.05 201.05C417.27 195.04 419.45 189 421.64 182.98C421.74 182.69 421.88 182.42 422.04 182.05C425.46 184.91 426.8 188.51 426.34 192.82C431.72 194.13 436.98 195.41 442.3 196.7C443.1 191.18 442.2 186.08 439.22 181.41C436.24 176.74 431.95 173.6 427.09 171.17C426.25 170.75 426.16 170.38 426.48 169.58C427.01 168.26 427.42 166.89 427.88 165.54L419.11 162.35C418.51 164.02 417.9 165.68 417.3 167.33C417.15 167.34 417.05 167.36 416.96 167.35C416.71 167.3 416.47 167.24 416.22 167.18C411.83 166.1 407.4 165.68 402.93 166.57C395.31 168.09 389.66 172.11 386.87 179.59C384.12 186.94 385.17 193.81 389.68 200.16C392.64 204.33 396.53 207.53 400.72 210.37C401.32 210.78 401.47 211.1 401.2 211.81C398.78 218.36 396.41 224.93 394.03 231.5C393.94 231.75 393.81 231.99 393.65 232.37C389.54 228.2 387.72 223.35 388.24 217.55C382.78 216.11 377.37 214.68 371.89 213.24C371.04 218.39 371.1 223.35 372.88 228.17C375.16 234.41 379.53 238.92 385.08 242.4ZM416.67 225.58C417.07 228.53 416.13 231.1 414.09 233.23C411.36 236.08 406.24 237.37 402.34 236.22L409.55 216.37C412.89 218.78 416.08 221.18 416.67 225.58ZM402.26 184.45C403.98 180.29 409.55 178.14 413.08 178.83L406.73 196.32C402.38 192.98 400.71 188.2 402.26 184.45Z" fill="white"/>
<path d="M455.57 242.7L421.31 263.54L459.97 251.83L455.57 242.7Z" fill="white"/>
<path d="M444.15 275.98L445.14 270.93L424.9 269L444.15 275.98Z" fill="white"/>
<path d="M136.67 333.16C121.3 339.17 109.13 340.91 100.58 341.1C114.28 351.58 141.69 371.68 168.66 386.37C175.95 390.34 182.83 393.77 189.25 396.74C163.22 379.7 145.62 358.46 136.67 333.16Z" fill="white"/>
<path d="M411.49 264.49C410.87 264.16 410.23 263.89 409.58 263.69C408.92 263.49 408.25 263.35 407.58 263.28C406.56 263.18 405.53 263.22 404.51 263.42C403.53 263.61 402.56 263.95 401.62 264.43C399.7 265.42 398.18 267.03 397.16 268.93L390.35 281.56L403.3 301.82L415.75 278.74C417.08 276.27 417.37 273.43 416.57 270.74C416.37 270.07 416.11 269.43 415.78 268.82C414.82 266.98 413.34 265.48 411.49 264.49Z" fill="white"/>
<path d="M173.33 255.27L203.81 252.95L185.77 217.43L173.33 255.27Z" fill="white"/>
<path d="M419.17 353.96C419.16 353.72 419.14 353.49 419.12 353.24C419.12 353.18 419.11 353.12 419.1 353.07C419.08 352.81 419.05 352.55 419.02 352.28C419.02 352.24 419.01 352.21 419.01 352.17C418.97 351.87 418.93 351.57 418.88 351.26V351.25C417.57 343.17 412.21 331.54 402.37 315.41C402.22 315.16 402.06 314.9 401.9 314.65C401.67 314.27 401.43 313.88 401.19 313.5C401 313.24 400.7 312.81 400.51 312.55C400.12 312.11 399.83 311.6 399.66 311.05C398.78 309.65 397.87 308.23 396.94 306.77C396.94 306.77 396.94 306.77 396.94 306.76C396.94 306.76 396.94 306.76 396.94 306.75L382.67 284.42C382.39 284.1 382.16 283.75 382 283.37L368.9 262.9C365.29 257.26 357.77 255.6 352.12 259.21C346.48 262.82 344.82 270.34 348.43 275.99L357.28 289.83L389.69 340.07C390.89 341.93 390.36 344.42 388.49 345.62C387.69 346.14 386.78 346.33 385.9 346.24C384.73 346.12 383.62 345.49 382.94 344.42L359.38 307.9C355.97 304.9 350.96 304.5 347.12 306.96C344.82 308.43 343.23 310.71 342.64 313.38C342.57 313.71 342.51 314.05 342.47 314.38C342.46 314.47 342.46 314.55 342.45 314.64C342.43 314.89 342.4 315.14 342.4 315.38C342.4 315.5 342.41 315.62 342.41 315.74C342.41 315.95 342.41 316.16 342.43 316.37C342.44 316.51 342.47 316.64 342.48 316.78C342.5 316.97 342.52 317.16 342.55 317.35C342.58 317.5 342.62 317.64 342.65 317.79C342.69 317.97 342.72 318.15 342.77 318.32C342.81 318.47 342.87 318.62 342.92 318.77C342.97 318.94 343.02 319.1 343.09 319.27C343.15 319.42 343.22 319.57 343.29 319.71C343.36 319.87 343.42 320.03 343.5 320.18C343.57 320.33 343.66 320.47 343.74 320.61C343.83 320.76 343.91 320.92 344 321.06L359.29 343.52C360.54 345.35 360.06 347.85 358.23 349.1C357.42 349.65 356.47 349.87 355.56 349.78C354.42 349.66 353.34 349.06 352.65 348.05L338.3 326.97C336.89 325.96 335.28 325.34 333.62 325.13C331.56 324.87 329.42 325.24 327.53 326.25C326.69 326.7 325.9 327.27 325.18 327.97C324.27 328.85 323.53 329.9 323.02 331.05C321.58 334.32 321.88 337.9 323.73 340.79C323.74 340.81 323.76 340.83 323.77 340.85L328.64 348.8L335.48 359.16C336.7 361.01 336.19 363.5 334.34 364.72C332.49 365.94 330 365.43 328.78 363.58L321.9 353.16C321.89 353.14 321.88 353.13 321.87 353.11C319.88 350 317.4 348.04 314.88 347.6C314.66 347.56 314.45 347.54 314.23 347.53C314.12 347.52 314.01 347.52 313.9 347.52C313.74 347.52 313.59 347.52 313.43 347.53C313.32 347.54 313.21 347.54 313.1 347.55C312.94 347.57 312.78 347.59 312.62 347.62C312.51 347.64 312.39 347.66 312.28 347.68C312.12 347.72 311.95 347.76 311.79 347.81C311.68 347.84 311.56 347.87 311.45 347.91C311.28 347.97 311.12 348.03 310.95 348.1C310.84 348.15 310.72 348.19 310.61 348.24C310.44 348.32 310.26 348.41 310.09 348.5C309.98 348.56 309.87 348.61 309.76 348.67C309.57 348.78 309.38 348.9 309.19 349.02C309.09 349.08 309 349.13 308.91 349.2C308.62 349.39 308.33 349.6 308.04 349.82C305.72 351.6 304.48 353.66 304.25 356.12C303.47 364.63 314.08 376.4 319.17 382.06C319.54 382.47 319.88 382.85 320.21 383.21C328.9 392.93 340.99 402.07 356.41 403.66C368.08 404.87 381.66 401.76 397.13 391.31C407.16 384.54 419.13 372.75 419.23 355.03C419.23 354.75 419.23 354.46 419.21 354.17C419.18 354.09 419.18 354.02 419.17 353.96Z" fill="white"/>
<path d="M273.94 267.68C283.27 266.97 290.58 263.65 295.88 257.72C301.03 251.8 303.26 244.4 302.59 235.53C302.54 234.85 302.47 234.18 302.38 233.52C301.93 234.45 301.37 235.34 300.67 236.15C296 241.6 287.55 241.89 282.51 236.5C278.71 232.43 278.19 226.15 281.29 221.52C284.35 216.93 289.78 215.2 294.62 216.5C293.98 215.84 293.31 215.21 292.6 214.61C286.46 209.56 278.73 207.38 269.4 208.1L253.15 209.34L257.7 268.93L273.94 267.68Z" fill="white"/>
<path d="M314.19 388.55C313.87 388.2 313.53 387.82 313.17 387.42C312.58 386.76 311.94 386.05 311.27 385.3C304.77 377.98 295.22 366.26 296.22 355.38C296.66 350.63 298.98 346.61 303.12 343.44C303.43 343.2 303.73 342.98 304.04 342.77C304.14 342.7 304.23 342.64 304.33 342.58C304.54 342.44 304.74 342.31 304.95 342.18C305.06 342.11 305.17 342.05 305.28 341.98C305.47 341.86 305.66 341.75 305.85 341.65C305.96 341.59 306.07 341.53 306.17 341.47C306.37 341.36 306.57 341.26 306.77 341.17C306.86 341.13 306.95 341.08 307.04 341.04C307.32 340.91 307.61 340.78 307.88 340.67C307.92 340.66 307.95 340.64 307.99 340.63C308.23 340.53 308.47 340.44 308.71 340.36C308.81 340.33 308.91 340.3 309.01 340.26C309.18 340.2 309.36 340.15 309.53 340.1C309.64 340.07 309.74 340.04 309.85 340.01C310.01 339.97 310.17 339.93 310.33 339.89C310.44 339.87 310.54 339.84 310.64 339.82C310.81 339.78 310.97 339.75 311.13 339.73C311.22 339.71 311.31 339.7 311.4 339.68C311.64 339.64 311.88 339.61 312.11 339.58C312.18 339.57 312.25 339.57 312.32 339.56C312.49 339.54 312.66 339.53 312.82 339.52C312.92 339.51 313.02 339.51 313.11 339.51C313.24 339.5 313.37 339.5 313.5 339.5C313.6 339.5 313.7 339.5 313.8 339.5C313.92 339.5 314.04 339.5 314.16 339.51C314.26 339.51 314.35 339.52 314.45 339.52C314.48 339.52 314.51 339.52 314.54 339.52C314.53 339.49 314.53 339.47 314.52 339.44C314.46 339.19 314.41 338.94 314.36 338.7C314.35 338.64 314.33 338.57 314.32 338.51C314.26 338.2 314.22 337.88 314.18 337.56C314.17 337.47 314.16 337.38 314.15 337.3C314.12 337.07 314.1 336.84 314.09 336.61C314.08 336.49 314.08 336.38 314.07 336.26C314.06 336.06 314.05 335.85 314.05 335.65C314.05 335.52 314.05 335.4 314.05 335.27C314.05 335.07 314.05 334.87 314.06 334.67C314.06 334.54 314.07 334.42 314.08 334.29C314.09 334.09 314.11 333.88 314.13 333.68C314.14 333.56 314.15 333.44 314.16 333.32C314.18 333.1 314.22 332.88 314.25 332.66C314.27 332.56 314.28 332.46 314.29 332.35C314.34 332.03 314.4 331.71 314.47 331.38C315.52 326.62 318.36 322.55 322.47 319.92C326.09 317.6 330.32 316.68 334.39 317.17C334.36 316.76 334.34 316.35 334.33 315.93C334.33 315.8 334.33 315.67 334.33 315.54C334.33 315.19 334.35 314.84 334.36 314.49C334.36 314.46 334.36 314.44 334.36 314.41C334.39 314.01 334.43 313.6 334.49 313.2C334.5 313.1 334.52 313 334.53 312.91C334.59 312.5 334.66 312.1 334.75 311.69C335.8 306.93 338.64 302.86 342.75 300.23C343.16 299.97 343.57 299.73 344 299.51C344.14 299.44 344.28 299.37 344.41 299.3C344.7 299.16 344.99 299.01 345.28 298.89C345.45 298.82 345.61 298.75 345.78 298.69C346.05 298.58 346.33 298.48 346.61 298.38C346.78 298.32 346.96 298.26 347.13 298.21C347.41 298.12 347.69 298.04 347.97 297.97C348.14 297.93 348.31 297.88 348.49 297.84C348.79 297.77 349.1 297.71 349.41 297.66C349.56 297.63 349.71 297.6 349.86 297.58C350.31 297.51 350.76 297.46 351.22 297.42C351.23 297.42 351.24 297.42 351.25 297.42C351.67 297.39 352.08 297.37 352.5 297.37L341.82 280.66C336.06 271.64 338.04 259.55 346.68 253.23C351.18 249.93 356.54 248.79 361.59 249.54L355.05 125.79L86.1801 139.96L96.2601 330.63C102.81 331.41 117.42 331.51 138.78 322.4L142.89 320.65L144.22 324.97C156.22 363.88 191.1 392.62 247.88 410.41C249.24 410.52 250.07 410.55 250.32 410.55L336.49 405.99C326.97 401.26 319.48 394.46 314.19 388.55ZM243.72 201.94C244.62 200.85 245.78 200.25 247.22 200.14L269.9 198.41C282.46 197.45 292.79 200.9 300.88 208.76C304.47 212.19 307.26 216.2 309.23 220.78C311.21 225.36 312.38 230.02 312.74 234.76C313.1 239.5 312.65 244.28 311.39 249.11C310.13 253.94 307.99 258.32 304.96 262.26C298.16 271.26 288.47 276.23 275.91 277.19L253.23 278.92C251.8 279.03 250.56 278.63 249.51 277.73C248.46 276.83 247.88 275.66 247.77 274.23L242.54 205.73C242.42 204.29 242.82 203.03 243.72 201.94ZM170.1 264.94L164.11 283.1C163.37 285.28 162.02 286.44 160.06 286.59C158.1 286.74 156.64 286.36 155.66 285.45C154.68 284.54 154.15 283.58 154.08 282.56C154 281.55 154.12 280.57 154.42 279.64L178.01 209.5C179.13 206.31 181.19 204.6 184.2 204.37L185.33 204.28C188.34 204.05 190.64 205.43 192.23 208.41L226.2 274.15C226.64 275.02 226.91 275.97 226.98 276.98C227.06 278 226.68 279.03 225.85 280.07C225.02 281.12 223.63 281.72 221.67 281.87C219.71 282.02 218.2 281.08 217.14 279.04L208.46 262L170.1 264.94ZM239.46 336.88C239.38 336.89 239.31 336.89 239.23 336.9C216.95 338.6 195.31 331.56 178.27 317.06C176.13 315.24 175.51 312.08 176.99 309.69C178.87 306.65 182.92 306.1 185.52 308.33C216.07 334.41 262.15 330.77 288.23 300.22C290.46 297.61 294.54 297.52 296.87 300.23C298.71 302.36 298.6 305.57 296.77 307.71C282.17 324.76 261.82 335.12 239.46 336.88Z" fill="white"/>
</g>
<defs>
<linearGradient id="paint0_linear_3447_453" x1="41.1139" y1="504.4" x2="477.114" y2="0.400511" gradientUnits="userSpaceOnUse">
<stop offset="0.00214343" stop-color="#0086FF"/>
<stop offset="0.0304" stop-color="#028AF9"/>
<stop offset="0.3767" stop-color="#19B7B1"/>
<stop offset="0.665" stop-color="#2AD97D"/>
<stop offset="0.881" stop-color="#35ED5D"/>
<stop offset="1" stop-color="#39F551"/>
</linearGradient>
<linearGradient id="paint1_linear_3447_453" x1="41.1139" y1="504.4" x2="477.114" y2="0.400511" gradientUnits="userSpaceOnUse">
<stop offset="0.00214343" stop-color="#0086FF"/>
<stop offset="0.0304" stop-color="#028AF9"/>
<stop offset="0.3767" stop-color="#19B7B1"/>
<stop offset="0.665" stop-color="#2AD97D"/>
<stop offset="0.881" stop-color="#35ED5D"/>
<stop offset="1" stop-color="#39F551"/>
</linearGradient>
<clipPath id="clip0_3447_453">
<rect width="512" height="512" rx="102.4" fill="white"/>
</clipPath>
</defs>
</svg>
