<svg width="521" height="400" viewBox="0 0 521 400" fill="none" xmlns="http://www.w3.org/2000/svg">
<path fill-rule="evenodd" clip-rule="evenodd" d="M269 30C269 13.4315 282.431 0 299 0C315.569 0 329 13.4315 329 30V200C329 218.385 332.621 236.59 339.657 253.576C346.693 270.561 357.005 285.995 370.005 298.995C383.005 311.995 398.439 322.307 415.424 329.343C432.41 336.379 450.615 340 469 340H491C507.569 340 521 353.431 521 370C521 386.569 507.569 400 491 400H469C442.736 400 416.728 394.827 392.463 384.776C368.198 374.725 346.15 359.993 327.579 341.421C309.007 322.85 294.275 300.802 284.224 276.537C274.173 252.272 269 226.264 269 200V30Z" fill="#828282"/>
<path fill-rule="evenodd" clip-rule="evenodd" d="M264.049 10.5328C260.833 16.2943 259 22.9332 259 30.0001V73.0394C248.94 68.3642 238.307 64.8771 227.313 62.6901C200.155 57.2882 172.006 60.0607 146.424 70.657C120.843 81.2532 98.9776 99.1974 83.5942 122.22C68.2108 145.243 60 172.311 60 200C60 227.689 68.2109 254.757 83.5943 277.78C98.9777 300.803 120.843 318.747 146.424 329.343C172.006 339.939 200.155 342.712 227.313 337.31C250.024 332.792 271.188 322.728 288.961 308.102C297.768 322.77 308.355 336.34 320.508 348.493C322.59 350.575 324.715 352.612 326.879 354.602C301.533 375.404 271.374 389.721 239.018 396.157C200.222 403.874 160.009 399.914 123.463 384.776C86.9181 369.639 55.6824 344.004 33.7061 311.114C11.7298 278.224 5.97283e-06 239.556 0 200C-5.97282e-06 160.444 11.7298 121.776 33.7061 88.8861C55.6823 55.9962 86.9181 30.3617 123.463 15.2242C160.008 0.0866627 200.222 -3.87401 239.018 3.84303C247.529 5.53606 255.889 7.77447 264.049 10.5328ZM339 56.9881V60.2274C339.35 59.1747 339.352 58.0342 339 56.9881Z" fill="#FA8127"/>
</svg>
