<svg width="80" height="81" viewBox="0 0 80 81" fill="none" xmlns="http://www.w3.org/2000/svg">
<path d="M77.8146 12.28C77.7976 11.997 77.7786 11.714 77.7456 11.437C77.7196 11.22 77.6846 11.008 77.6456 10.795C77.6066 10.582 77.5686 10.366 77.5236 10.155L62.4556 23.58L57.1946 53.418L68.9136 65.136C68.9426 64.994 68.9846 64.855 69.0136 64.712L77.6136 15.932C77.7056 15.41 77.7676 14.894 77.8136 14.384C77.8276 14.211 77.8256 14.042 77.8336 13.871C77.8486 13.538 77.8626 13.207 77.8566 12.881C77.8436 12.68 77.8266 12.48 77.8146 12.28Z" fill="#96BE0B"/>
<path d="M69.7345 0.969002L69.6825 0.947998C69.2825 0.796998 68.8775 0.662004 68.4575 0.548004L68.4115 0.535004C67.5736 0.303043 66.7165 0.147404 65.8505 0.0699997C65.4015 0.0309997 64.9505 0 64.4825 0H28.2555C19.4675 0 11.0555 7.15 9.50752 15.938L0.907527 64.718C-0.642473 73.506 5.24653 80.656 14.0345 80.656H50.2635C51.8579 80.6497 53.4436 80.4204 54.9745 79.975L42.5025 66.849H16.4655C16.1989 66.858 15.9337 66.8055 15.6906 66.6957C15.4474 66.5859 15.2327 66.4217 15.0631 66.2158C14.8935 66.0098 14.7735 65.7676 14.7124 65.5079C14.6512 65.2483 14.6506 64.978 14.7105 64.718L23.3105 15.938C23.4283 15.3528 23.7397 14.8243 24.1945 14.4377C24.6493 14.0511 25.221 13.829 25.8175 13.807H56.6865L70.8135 1.446C70.4645 1.27 70.1045 1.113 69.7345 0.969002Z" fill="#96BE0B"/>
<path d="M70.8145 1.44409L56.6875 13.8051H56.8875L70.8465 1.4621C70.8615 1.4691 70.8785 1.47509 70.8935 1.48309L70.8495 1.45909L70.8145 1.44409Z" fill="#96BE0B"/>
<path d="M54.6466 41.7181H49.2556L49.4216 40.7771H54.8086L54.6466 41.7181Z" fill="#FF9900" stroke="#FF9900" stroke-width="0.5" stroke-linecap="round" stroke-linejoin="round"/>
<path d="M43.2276 23.772H42.2866L43.2366 18.385H44.1776L43.2276 23.772Z" fill="#FF9900" stroke="#FF9900" stroke-width="0.5" stroke-linecap="round" stroke-linejoin="round"/>
<path d="M77.7126 80.8941H61.7446L39.5446 57.4401L48.5086 50.2981L77.7126 80.8941Z" fill="#FF9900"/>
<path d="M38.0776 35.3801L41.8936 39.4891L79.1136 1.33813L38.0776 35.3801Z" fill="#FF9900"/>
<path opacity="0.28" fill-rule="evenodd" clip-rule="evenodd" d="M15.2972 66.4503C15.2121 66.38 15.1337 66.3015 15.0631 66.2158C14.8935 66.0098 14.7735 65.7676 14.7124 65.5079C14.6512 65.2483 14.6506 64.978 14.7105 64.718L23.3105 15.938C23.4283 15.3528 23.7397 14.8243 24.1945 14.4377C24.6493 14.0511 25.221 13.829 25.8175 13.807H56.6865L70.8135 1.446C70.4645 1.27 70.1045 1.113 69.7345 0.969002L69.6825 0.947998C69.2825 0.796998 68.8775 0.662004 68.4575 0.548004L68.4115 0.535004C67.5736 0.303043 66.7165 0.147404 65.8505 0.0699997C65.4015 0.0309997 64.9505 0 64.4825 0H28.2555C19.4675 0 11.0555 7.15 9.50752 15.938L0.907527 64.718C-0.138199 70.6469 2.20208 75.8303 6.53419 78.5754C9.0029 75.0142 11.9449 70.9032 15.2972 66.4503Z" fill="url(#paint0_linear_3768_2698)"/>
<defs>
<linearGradient id="paint0_linear_3768_2698" x1="52.6242" y1="55.1426" x2="4.89088" y2="13.3768" gradientUnits="userSpaceOnUse">
<stop stop-color="white"/>
<stop offset="1" stop-color="#96BE0B"/>
</linearGradient>
</defs>
</svg>
