<svg width="1902" height="2500" viewBox="0 0 1902 2500" fill="none" xmlns="http://www.w3.org/2000/svg">
<path d="M1901.55 2192.38C1901.55 2276.28 1867.99 2321.02 1800.88 2348.98C1543.61 2449.65 1241.6 2499.99 950.773 2499.99C659.948 2499.99 357.938 2449.65 100.67 2348.98C33.5567 2321.02 0 2276.28 0 2192.38V0.0129395H1901.55V2192.38Z" fill="#0059B3"/>
<path d="M508.943 1336.69C246.083 1174.5 156.598 1101.79 151.005 989.936C151.005 967.565 156.598 928.415 162.191 906.044L139.82 889.266C117.449 922.822 106.263 961.972 106.263 1001.12C106.263 1062.64 128.634 1112.98 151.005 1146.53C190.155 1202.46 229.304 1241.61 324.381 1308.72C425.052 1387.02 497.758 1476.51 536.907 1571.59H553.686V1465.32C693.505 1543.62 816.546 1616.33 878.067 1750.55H894.845C866.881 1616.33 788.583 1510.06 508.943 1336.69ZM1280.75 978.75C1224.82 1006.71 1185.67 1040.27 1146.52 1090.61L1263.97 1085.01C1269.56 1029.09 1275.15 995.528 1280.75 978.75ZM1705.8 1398.21C1716.98 1370.24 1728.17 1336.69 1728.17 1308.72L1554.79 1297.54C1549.2 1342.28 1538.02 1381.43 1521.24 1420.58L1705.8 1398.21ZM1521.24 967.564C1532.42 1001.12 1543.61 1034.68 1549.2 1062.64L1649.87 1057.05C1616.31 1017.9 1571.57 989.936 1521.24 967.564ZM1476.49 1068.23C1465.31 1029.09 1448.53 984.343 1426.16 945.193H1370.23C1353.45 984.343 1342.27 1029.09 1331.08 1073.83L1476.49 1068.23ZM1560.39 1124.16C1565.98 1168.9 1565.98 1208.05 1565.98 1247.2L1733.76 1236.02C1728.17 1196.87 1716.98 1163.31 1700.21 1129.76L1560.39 1124.16ZM1504.46 1247.2C1504.46 1202.46 1498.87 1163.31 1487.68 1118.57L1319.9 1112.98C1308.71 1163.31 1303.12 1213.65 1297.53 1258.39L1504.46 1247.2ZM1526.83 889.266L1549.2 861.302L1521.24 822.152L1526.83 810.967L1610.72 855.709L1593.94 911.637C1605.13 917.229 1621.91 928.415 1638.69 939.601L1694.61 850.116L1554.79 777.41H1230.41L973.144 928.415C1023.48 961.972 1062.63 995.528 1096.19 1034.68C1163.3 934.008 1286.34 872.487 1403.79 872.487C1442.94 872.487 1487.68 878.08 1526.83 889.266ZM894.845 883.673L1034.66 799.781C1006.7 783.003 973.144 777.41 939.588 777.41C889.253 777.41 810.954 799.781 771.804 805.374C788.583 816.559 855.696 855.709 894.845 883.673ZM928.402 564.884C878.067 553.699 850.103 559.291 822.139 587.255C838.918 592.848 855.696 598.441 872.474 598.441C900.438 592.848 917.217 576.07 928.402 564.884ZM1722.58 1756.15H1705.8C1705.8 1655.48 1616.31 1633.11 1521.24 1633.11H1224.82C1236.01 1677.85 1236.01 1733.78 1230.41 1789.7H1213.63C1185.67 1571.59 1062.63 1459.73 889.253 1342.28V1442.95H872.474C827.732 1336.69 727.062 1241.61 626.392 1174.5L548.093 1118.57V1224.83H536.907C497.758 1118.57 419.459 1034.68 318.789 939.601C206.933 838.93 156.598 777.41 134.227 704.704C111.856 665.554 111.856 626.405 106.263 581.662C106.263 497.771 145.412 419.472 201.34 391.508V430.657C178.969 469.807 162.191 514.549 162.191 559.291C162.191 598.441 173.376 648.776 190.155 687.925C257.268 810.967 469.794 961.972 609.613 1051.46C1040.26 1336.69 1124.15 1387.02 1191.26 1543.62C1196.86 1560.4 1208.04 1582.77 1213.63 1610.73C1275.15 1599.55 1498.87 1565.99 1543.61 1560.4C1549.2 1560.4 1565.98 1554.81 1577.17 1554.81C1616.31 1532.44 1644.28 1498.88 1672.24 1459.73L1510.05 1442.95C1504.46 1459.73 1493.27 1476.51 1487.68 1487.69H1476.49C1482.09 1470.92 1482.09 1454.14 1487.68 1437.36L1442.94 1431.77V1420.58L1487.68 1414.99C1498.87 1370.24 1498.87 1325.5 1498.87 1286.35L1291.93 1275.17V1336.69H1280.75C1275.15 1314.32 1275.15 1297.54 1269.56 1275.17H1224.82V1263.98H1269.56C1263.97 1213.65 1263.97 1163.31 1263.97 1112.98L1140.93 1107.38L1157.71 1140.94C1185.67 1213.65 1180.08 1297.54 1168.89 1336.69H1152.11C1152.11 1291.95 1135.34 1236.02 1118.56 1202.46C1085 1124.16 1012.29 1051.46 883.66 973.157V1073.83H866.881C827.732 939.601 721.469 866.894 564.871 788.595C436.237 721.482 397.088 643.183 402.68 520.142L447.423 548.106C458.608 659.961 548.093 727.075 637.577 727.075C693.505 727.075 743.84 721.482 794.175 710.296C866.881 693.518 928.402 682.333 984.33 704.704V637.59H950.773C933.995 648.776 906.031 665.554 861.289 665.554C810.954 665.554 715.876 637.59 715.876 531.327C715.876 436.25 794.175 425.065 855.696 425.065H967.552C984.33 425.065 989.923 419.472 1001.11 413.879C1001.11 402.693 1006.7 397.101 1006.7 385.915V274.059H710.284V391.508L598.428 346.766V318.802H654.356V274.059H458.608V178.982H391.495C352.345 178.982 313.196 206.946 313.196 251.688C307.603 302.023 324.381 341.173 374.717 341.173H385.902V397.101H374.717C290.825 397.101 223.711 329.987 223.711 246.096C223.711 156.611 296.418 89.4976 391.495 89.4976H536.907V184.575H1096.19V329.987C1096.19 352.358 1096.19 385.915 1090.59 408.286C1090.59 425.065 1085 447.436 1057.04 469.807C1040.26 480.992 1012.29 486.585 973.144 486.585C939.588 486.585 906.031 486.585 872.474 480.992C810.954 475.4 788.583 503.364 788.583 525.735V542.513C816.546 520.142 861.289 503.364 906.031 520.142C989.923 548.106 1012.29 548.106 1057.04 514.549L1062.63 525.735C1057.04 531.327 1051.44 542.513 1034.66 553.699H1073.81V777.41L1202.45 699.111H1565.98L1739.36 788.595C1761.73 799.781 1767.32 816.559 1772.91 833.338C1772.91 850.116 1772.91 872.487 1761.73 883.673C1756.13 894.858 1716.98 961.972 1694.61 995.528C1761.73 1068.23 1795.28 1157.72 1795.28 1252.8C1795.28 1347.87 1761.73 1465.32 1649.87 1554.81C1694.61 1565.99 1728.17 1593.96 1756.13 1633.11L1722.58 1756.15Z" fill="#FFDF01"/>
<path d="M961.959 2225.94H894.846V2030.19H961.959C1051.44 2030.19 1085 2058.16 1085 2125.27C1079.41 2197.98 1034.67 2231.53 961.959 2225.94ZM956.366 1845.63C1012.29 1845.63 1045.85 1856.82 1045.85 1912.74C1045.85 1974.27 995.516 1991.04 939.588 1991.04H894.846V1845.63H956.366ZM1062.63 2007.82C1112.96 2002.23 1157.71 1963.08 1157.71 1907.15C1157.71 1856.82 1135.34 1800.89 984.33 1800.89H732.655V1806.48C738.248 1806.48 755.026 1817.67 760.619 1823.26C777.397 1840.04 782.99 1862.41 782.99 1895.97V2276.28H989.923C1107.37 2276.28 1185.67 2231.53 1185.67 2130.86C1191.26 2046.97 1129.74 2013.41 1062.63 2007.82ZM352.346 1845.63H425.052C486.572 1845.63 520.129 1862.41 520.129 1929.52C520.129 1985.45 480.98 2024.6 413.866 2024.6H357.938V1845.63H352.346ZM548.093 2270.68H682.32L508.943 2046.97C576.057 2030.19 631.985 1991.04 631.985 1918.34C631.985 1834.45 581.65 1795.3 458.608 1795.3H190.155V1800.89C201.34 1806.48 212.526 1812.07 218.119 1817.67C234.897 1834.45 240.49 1862.41 240.49 1901.56V2270.68H352.346V2058.16H391.495L548.093 2270.68ZM1633.09 1862.41C1661.06 1879.19 1672.24 1901.56 1672.24 1901.56H1677.84L1700.21 1823.26C1700.21 1823.26 1655.46 1795.3 1554.79 1795.3C1398.2 1795.3 1286.34 1873.6 1286.34 2041.38C1286.34 2231.53 1426.16 2281.87 1543.61 2281.87C1655.46 2281.87 1700.21 2248.31 1700.21 2248.31V2192.38C1700.21 2192.38 1661.06 2231.53 1577.17 2231.53C1504.46 2231.53 1403.79 2197.98 1403.79 2041.38C1403.79 1895.97 1465.31 1851.22 1549.2 1851.22C1593.94 1845.63 1616.31 1856.82 1633.09 1862.41Z" fill="white"/>
</svg>
