<svg width="209" height="149" viewBox="0 0 209 149" fill="none" xmlns="http://www.w3.org/2000/svg">
<path d="M171.246 55.1954C169.682 50.7144 167.027 49.4044 165.095 49.0954C163.463 48.8374 160.268 49.0064 157.14 53.0814C155.862 54.795 154.847 56.6899 154.129 58.7034C150.514 55.6594 146.581 53.7614 143.434 53.2874C139.534 52.7064 137.393 54.3114 136.453 55.3164C134.293 57.6594 133.833 61.7314 135.27 65.9314C136.53 69.6154 141.015 78.2494 155.806 81.3224C155.752 84.5469 155.381 87.7584 154.699 90.9104C154.581 91.455 154.572 92.0175 154.672 92.5657C154.772 93.1138 154.979 93.6369 155.281 94.1049C155.584 94.5729 155.975 94.9768 156.434 95.2933C156.892 95.6098 157.409 95.8327 157.954 95.9494C158.544 96.081 159.156 96.081 159.747 95.9494C160.545 95.7785 161.277 95.3807 161.855 94.8038C162.433 94.2269 162.832 93.4955 163.004 92.6974C164.171 87.5228 164.527 82.1984 164.061 76.9144C166.675 74.7534 175.252 66.6344 171.246 55.1954ZM144.181 65.0444C143.574 64.067 143.166 62.9796 142.981 61.8444C145.694 62.6684 151.144 66.0294 154.099 72.0914C148.062 70.1074 145.35 66.9714 144.181 65.0444ZM161.368 67.5284C160.701 65.1364 162.075 61.0284 163.468 58.8034C163.809 60.3214 163.797 61.8976 163.433 63.4103C163.069 64.9231 162.362 66.332 161.368 67.5284Z" fill="#EF6079"/>
<path d="M184.213 25.6134L182.813 24.3064C152.342 -4.86558 112.626 -1.57358 91.6527 2.98442C84.3748 4.49868 77.2523 6.68161 70.3757 9.50542C69.6505 9.82841 69.0302 10.3479 68.5849 11.0051C68.1395 11.6622 67.887 12.4309 67.8558 13.2242C67.8246 14.0174 68.0159 14.8036 68.4082 15.4937C68.8006 16.1839 69.3782 16.7505 70.0757 17.1294C73.6507 19.0674 75.6207 21.2884 75.9277 23.7524C76.4637 28.1794 72.0827 33.3924 70.1647 35.2304C62.061 40.9716 54.6005 47.5704 47.9127 54.9124C47.465 53.2246 46.9171 51.565 46.2717 49.9424C49.8177 48.1674 52.7177 44.5714 54.5487 39.5084C56.5107 34.1084 57.8057 24.6374 53.3487 20.6754C52.3687 19.8122 51.1451 19.2741 49.8464 19.1353C48.5478 18.9965 47.2381 19.2638 46.0977 19.9004C42.2942 21.8481 39.0207 24.6906 36.5587 28.1834C33.1677 26.3084 27.0917 23.9004 21.0237 26.3444C15.9067 28.3874 15.2417 32.1844 15.1907 33.7224C15.0337 38.7744 19.9457 43.4334 24.5717 45.6164C27.9144 47.155 31.6432 47.6506 35.2717 47.0384C35.3557 47.1974 35.4387 47.3594 35.5397 47.5184C38.3574 51.9618 40.1033 56.9994 40.6397 62.2334C40.6632 62.6601 40.7554 63.0802 40.9127 63.4774C37.8773 67.5177 35.2154 71.8254 32.9597 76.3474C31.273 72.9367 28.5614 70.1393 25.2047 68.3474C22.6571 67.0808 19.8089 66.5432 16.9749 66.794C14.1409 67.0447 11.4313 68.0741 9.14572 69.7684C3.10672 74.1354 -1.98027 84.1684 0.762727 90.0864C1.35373 91.3734 3.81775 95.4634 10.2827 93.8374C18.9677 91.7034 23.5937 83.5954 25.2767 79.9374C27.0907 83.1774 28.1067 87.9304 28.1537 93.7664C28.1624 94.0906 28.205 94.4131 28.2807 94.7284C27.9064 100.249 28.3587 105.795 29.6227 111.182C32.192 122.652 39.1575 132.657 49.0227 139.046C49.0698 139.07 49.1155 139.096 49.1597 139.124C58.2127 143.885 67.3507 145.306 76.3187 143.354C83.4102 141.723 89.962 138.293 95.3427 133.394C102.52 138.886 110.584 143.108 119.186 145.877C119.521 145.991 127.634 148.625 141.76 148.471L142.228 148.527C142.395 148.545 142.566 148.544 142.734 148.552C147.158 148.497 151.565 147.999 155.89 147.064C186.802 140.346 209.09 111.885 208.871 79.3974C208.73 59.0214 199.285 38.4244 184.213 25.6134ZM47.8307 28.7594C47.9386 32.3856 47.1026 35.9775 45.4047 39.1834C44.7353 40.524 43.6851 41.6371 42.3857 42.3834C41.9137 41.5125 41.6185 40.5568 41.5173 39.5713C41.416 38.5859 41.5107 37.5902 41.7957 36.6414C42.8866 33.4223 45.0075 30.6522 47.8307 28.7594ZM23.9027 34.3594C23.9968 34.3124 24.094 34.272 24.1937 34.2384C27.5107 32.8974 31.5267 35.0194 33.2347 36.0814C33.0834 36.9647 33.0074 37.8593 33.0077 38.7554C31.3678 38.8936 29.7197 38.6132 28.2177 37.9404C26.4899 37.1449 25.0018 35.9089 23.9027 34.3564V34.3594ZM18.0027 75.3444C17.9737 75.4334 14.9027 83.7224 8.55173 85.5104C9.37423 82.0208 11.338 78.9055 14.1317 76.6584C14.9726 76.0386 15.9339 75.6016 16.9537 75.3754C17.3113 75.298 17.6744 75.2491 18.0397 75.2294C18.0259 75.2661 18.0143 75.3035 18.0047 75.3414L18.0027 75.3444ZM94.9697 121.397C90.8746 116.905 88.259 111.262 87.4767 105.233C87.3547 104.047 87.4427 100.488 89.3037 98.4224C90.1802 97.438 91.3353 96.7432 92.6157 96.4304C94.6267 95.9894 96.6367 96.9514 98.5757 99.2614C99.0667 100.013 102.045 105.131 99.5637 113.205C98.5052 116.174 96.9528 118.943 94.9717 121.394L94.9697 121.397ZM200.358 79.4654C200.558 107.958 181.094 132.893 154.089 138.765C150.404 139.564 146.65 139.997 142.881 140.058L142.404 140.006C142.244 139.995 142.076 139.986 141.904 139.988C129.18 140.143 121.915 137.845 121.849 137.823C114.443 135.414 107.474 131.828 101.209 127.202C104.036 123.787 106.227 119.892 107.678 115.702C111.632 102.887 105.66 94.5404 105.397 94.1894C105.355 94.1264 105.306 94.0654 105.266 94.0064C99.7867 87.3444 93.8527 87.4594 90.8067 88.1234C87.782 88.8108 85.0466 90.4236 82.9807 92.7374C78.2277 98.0374 78.9387 105.383 79.0407 106.196C80.0251 114.209 83.5459 121.697 89.0887 127.566C84.9195 131.227 79.9098 133.8 74.5057 135.056C67.5817 136.563 60.4057 135.417 53.1967 131.65C45.4532 126.387 39.9874 118.39 37.8967 109.263C35.7527 100.248 36.3726 90.7964 39.6757 82.1384C39.7567 81.9384 47.7687 61.6124 75.3167 41.9904C75.4515 41.8908 75.581 41.7844 75.7047 41.6714C76.7187 40.7564 85.5187 32.4474 84.3487 22.7504C83.9882 19.7705 82.7191 16.9739 80.7137 14.7404C84.8993 13.3719 89.1522 12.2187 93.4557 11.2854C117.056 6.15542 150.695 5.31842 176.956 30.4624L178.445 31.8734C178.508 31.9174 178.56 31.9734 178.629 32.0294C191.913 43.2774 200.255 61.4504 200.36 79.4624L200.358 79.4654Z" fill="#EF6079"/>
</svg>
