<svg width="326" height="326" viewBox="0 0 326 326" fill="none" xmlns="http://www.w3.org/2000/svg">
<rect width="326" height="326" rx="33" fill="#E85189"/>
<path fill-rule="evenodd" clip-rule="evenodd" d="M211.2 224.268L248.362 204.463L263.228 236.646C263.228 236.646 217.032 266.953 198.812 273.779C180.593 280.606 156.852 281.354 139.354 246.547C122.668 202.782 107.146 157.425 107.146 157.425L74.9351 167.329L62.5513 135.146L94.7588 122.768L82.3714 85.6339L131.921 48.5L146.787 102.963L206.245 83.1593L218.633 120.293L159.172 140.096L183.954 206.937C183.954 206.937 189.508 235.101 211.207 224.268H211.2ZM248.369 194.559L235.982 145.047L268.189 157.425L248.369 194.559ZM255.802 204.461L292.964 169.803L299 205.508L255.802 204.461Z" fill="white"/>
<path fill-rule="evenodd" clip-rule="evenodd" d="M85.0652 51.6073C88.5185 56.8811 94.2129 61.2417 95.8138 67.4286C97.4375 76.6749 102.171 86.8571 97.9864 96.1262C98.7182 97.4047 97.8034 98.8658 96.5227 99.7562C97.9864 105.03 92.3376 107.952 89.6619 111.4C82.3895 111.765 78.7304 103.934 73.4705 99.7562C72.5557 97.222 69.9943 95.1901 68.1876 93.0441C66.724 89.2314 64.8944 85.0535 65.2604 80.693C64.7115 78.4099 66.1751 76.6749 65.8092 74.1407C62.356 69.5747 65.2604 64.5064 64.7115 59.7805C68.7365 56.5158 69.6284 47.2468 76.3749 49.781C79.3996 49.2168 82.525 49.8737 85.0652 51.6073Z" fill="#004098"/>
<path fill-rule="evenodd" clip-rule="evenodd" d="M139.311 72.9307C141.141 72.9307 143.496 71.6751 144.411 74.0266C149.511 83.6609 154.611 98.7516 146.401 108.546C142.033 112.906 136.956 116.924 130.941 115.281C124.199 116.51 117.257 116.071 110.724 114.002C107.637 116.285 104.916 113.089 101.44 113.82C99.1526 112.906 96.3396 111.285 95.6307 109.094C100.999 98.3301 103.622 86.4104 103.269 74.3918C108.918 65.8534 119.461 71.3098 127.488 69.666L139.311 72.9307Z" fill="#FFE100"/>
<path fill-rule="evenodd" clip-rule="evenodd" d="M77.9757 109.094C80.8801 111.377 85.797 110.555 87.2378 114.915C84.1504 116.742 84.9509 121.468 81.246 123.454C81.246 125.463 78.9591 125.28 77.9757 126.353C75.0485 131.262 70.6804 137.266 65.0317 139.458C62.7448 145.622 56.4786 146.307 51.0128 147.266C44.4722 145.805 37.5428 143.636 33.1747 137.631C31.0021 132.54 27.7318 127.997 27.9148 121.833C26.4511 119.55 27.3659 116.376 27 113.819C34.6384 110.189 38.6405 101.834 41.3848 94.5508C44.6551 91.2861 48.1084 88.0214 53.2083 89.6652C63.5909 93.2952 68.5078 103.477 77.9757 109.094Z" fill="#E60012"/>
<path fill-rule="evenodd" clip-rule="evenodd" d="M101.257 114.915C102.72 117.198 105.282 119.276 104.184 122.906C102.903 124.55 100.182 121.833 98.7181 124.367C96.8886 124.732 94.1443 127.632 91.9717 125.098C89.4332 124.55 85.9799 127.632 85.1109 123.454C86.0257 122.358 84.745 120.737 85.6597 119.276C87.5704 115.708 90.7536 112.987 94.5788 111.651C96.8886 112.016 98.7181 114.368 101.257 114.915Z" fill="#E4007F"/>
<path fill-rule="evenodd" clip-rule="evenodd" d="M130.415 118.911C138.236 123.819 142.97 132.358 150.814 137.631C151.706 138.179 151.157 139.458 151.34 140.348C146.606 146.9 138.053 144.709 130.964 144.343C124.217 143.453 118.592 139.983 112.668 137.083C110.839 134.915 110.656 131.992 108.483 130.234C107.386 130.417 106.196 130.234 106.196 128.956C108.026 126.239 103.658 121.513 109.307 120.6C110.198 117.678 114.041 118.956 116.03 116.97C121.839 115.646 125.109 119.459 130.415 118.911Z" fill="#920783"/>
<path fill-rule="evenodd" clip-rule="evenodd" d="M108.918 135.097L110.724 142.723C108.186 144.891 110.175 148.179 107.454 149.983C105.99 151.444 103.635 149.983 103.086 152.266C101.256 149.983 97.8032 148.978 96.8884 145.896C95.9965 140.622 96.1794 135.714 95.8135 130.805C96.7054 129.55 97.0714 127.723 98.535 127.175C103.269 127.449 106.173 131.992 108.918 135.097Z" fill="#F39800"/>
<path fill-rule="evenodd" clip-rule="evenodd" d="M91.2628 130.006C91.4458 131.81 96.1797 133.453 93.5498 135.805C93.5498 139.64 93.9157 144.343 91.3772 147.814C88.084 155.987 79.9425 159.617 72.6243 162.356C69.2811 163.117 65.8493 163.417 62.4246 163.247C61.5316 162.832 60.8283 162.096 60.4553 161.186C60.0822 160.276 60.0667 159.259 60.4121 158.338C67.2729 150.896 66.9756 141.444 74.2481 134.001C76.535 130.371 81.1089 130.371 84.2648 127.814C86.3459 129.093 90.1651 126.011 91.2628 130.006Z" fill="#00A73C"/>
</svg>
