<svg width="201" height="224" viewBox="0 0 201 224" fill="none" xmlns="http://www.w3.org/2000/svg">
<g clip-path="url(#clip0_3450_465)">
<path d="M139 1C140.067 1 141.133 1 142.602 1.46865C143.003 14.7189 143.003 27.5004 143.003 39.4298C145.001 40.2645 146.716 40.6423 148.02 41.5866C152.508 44.8373 156.537 48.8609 161.337 51.5074C166.789 54.5129 168.146 59.1691 169.042 64.5289C169.403 66.6905 169.561 69.428 170.924 70.7869C176.985 76.8284 183.497 82.415 189.751 88.2675C193.578 91.8489 197.226 95.6205 200.993 99.2681C201.121 99.3926 201.655 99.0988 202 99C202 102.031 202 105.061 201.762 108.187C200.212 108.679 198.899 109.076 197.39 109.533C200.84 113.582 197.243 113.846 194.999 113.91C186.984 114.135 178.957 114.121 170.939 113.987C154.466 113.711 138.081 113.709 122.875 121.564C112.268 127.044 105.105 135.262 101.952 146.862C98.9761 157.813 100.924 168.424 103.911 179.2C103.102 180.312 102.495 181.178 101.58 181.873C98.1402 174.555 95.0097 167.409 91.6596 159.762C89.7346 165.415 88.0861 170.256 86.4376 175.097C82.0009 151.892 83.8295 129.734 94.3564 108.041C85.2415 111.412 82.8186 119.87 77.2294 126.94C76.2301 111.173 79.5229 97.493 85.923 83.923C64.1796 96.4502 48.5837 132.237 57.1141 148.633C58.2993 146.73 59.5343 144.747 61.4766 141.628C63.3368 161.438 67.0081 168.919 78.3048 182.568C84.7967 190.412 92.186 197.686 100.02 204.196C106.965 209.966 115.117 214.274 122.663 219.337C125.223 221.054 127.561 223.103 130 225C127.629 225 125.259 225 122.773 224.693C115.534 221.286 108.488 217.993 101.272 215.124C84.3293 208.389 71.3684 196.576 60.055 182.793C56.1241 178.005 53.1818 172.405 48.9351 165.861C46.6909 176.135 44.6784 185.347 42.4771 195.424C17.9442 174.626 14.1051 147.081 14.9702 117.215C11.9809 122.761 9.48301 127.395 6.98516 132.028C6.49945 131.969 6.01375 131.91 5.52804 131.851C4.68422 128.115 3.93107 124.355 2.93616 120.659C2.67001 119.671 1.66553 118.881 1 118C0.999998 108.312 0.999998 98.6249 1.3178 88.7931C2.08724 87.8211 2.61157 87.0244 2.97918 86.161C6.33111 78.2877 8.47978 69.5964 13.2219 62.6817C24.7257 45.9073 41.362 35.5865 60.7129 29.8049C66.45 28.0908 72.5147 27.473 78.7957 26.2834C76.5985 24.7393 74.7798 23.4612 72.5696 21.9081C73.6332 21.1232 74.29 20.3642 75.1126 20.0725C88.1167 15.4602 100.999 15.4651 113.865 20.8402C115.342 21.4571 118.041 21.0387 119.28 20.017C125.568 14.8322 131.589 9.32114 137.619 3.83213C138.341 3.17529 138.552 1.95768 139 1ZM11.0828 92.7842C10.6613 95.8353 10.2399 98.8863 9.81837 101.937C13.155 97.7072 15.4774 93.2457 18.0458 88.9307C20.5432 84.735 22.9687 80.4277 26.0207 76.65C29.1837 72.7348 33.2966 69.5966 36.5599 65.7503C39.8546 61.867 43.4994 59.0148 48.7304 57.9326C46.6386 71.6754 48.6229 83.8663 56.6153 95.8782C58.3332 82.9823 64.6695 73.1471 72.3528 64.8415C80.0538 56.517 89.7914 50.0766 98.3316 43.0607C80.2885 41.4462 67.6726 51.578 56.9525 65.4362C56.3737 65.1167 55.7949 64.7971 55.2161 64.4776C56.5534 56.7971 57.8907 49.1167 59.2638 41.2305C35.6547 50.8493 18.0352 66.181 11.0828 92.7842ZM162.921 73.6144C161.411 71.5296 159.901 69.4449 158.407 67.3815C155.618 68.2836 152.915 69.1574 149.195 70.3605C155.014 73.2773 159.652 75.6021 165.075 78.3206C164.142 76.4695 163.6 75.3949 162.921 73.6144Z" fill="#B0996A"/>
<path d="M103.911 179.2C107.683 187.381 111.252 195.808 114.821 204.235C114.407 204.469 113.993 204.703 113.579 204.938C109.72 197.55 105.86 190.163 101.945 182.41C102.496 181.178 103.102 180.312 103.911 179.2Z" fill="#B29A6C"/>
<path d="M110.027 141.256C114.717 126.468 126.018 120.473 139.69 118.104C152.77 115.837 165.926 116.46 178.963 119.014C179.902 119.198 180.837 119.527 181.704 119.936C188.854 123.311 189.781 125.019 184.718 132.622C182.78 135.531 179.904 137.861 177.268 140.246C174.263 142.964 171.874 141.763 169.375 139.025C167.262 136.709 164.667 134.712 161.988 133.054C149.287 125.197 138.606 134.01 134.068 144.304C132.637 147.55 131.737 151.029 129.279 154.807C127.849 148.741 126.419 142.675 125.017 136.724C120.645 138.467 118.013 145.788 119.306 162.777C120.026 172.234 123.844 181.456 126.173 190.425C115.814 183.078 103.479 158.902 110.027 141.256Z" fill="#B0996A"/>
</g>
<defs>
<clipPath id="clip0_3450_465">
<rect width="201" height="224" fill="white"/>
</clipPath>
</defs>
</svg>
