<svg width="600" height="600" viewBox="0 0 600 600" fill="none" xmlns="http://www.w3.org/2000/svg">
<path d="M400.001 150.004C400.001 102.854 400.001 79.3039 385.351 64.6539C370.701 50.0039 347.151 50.0039 300.001 50.0039C252.851 50.0039 229.301 50.0039 214.651 64.6539C200.001 79.3039 200.001 102.854 200.001 150.004M50.001 350.004C50.001 255.729 50.001 208.579 79.301 179.304C108.576 150.004 155.726 150.004 250.001 150.004H350.001C444.276 150.004 491.426 150.004 520.701 179.304C550.001 208.579 550.001 255.729 550.001 350.004C550.001 444.279 550.001 491.429 520.701 520.704C491.426 550.004 444.276 550.004 350.001 550.004H250.001C155.726 550.004 108.576 550.004 79.301 520.704C50.001 491.429 50.001 444.279 50.001 350.004Z" stroke="#DED9CD" stroke-width="37.5"/>
<path d="M250.001 375H150.001C138.226 375 132.326 375 128.651 378.65C125.001 382.325 125.001 388.25 125.001 400V425C125.001 436.775 125.001 442.675 128.651 446.35C132.326 450 138.251 450 150.001 450H250.001C261.776 450 267.676 450 271.351 446.35C275.001 442.675 275.001 436.75 275.001 425V400C275.001 388.225 275.001 382.325 271.351 378.65C267.676 375 261.751 375 250.001 375Z" stroke="#DED9CD" stroke-width="37.5" stroke-linejoin="round"/>
<path d="M150.001 162.504V375.004M150.001 537.504V462.504M450.001 162.504V537.504" stroke="#DED9CD" stroke-width="37.5" stroke-linecap="round"/>
</svg>
