<svg width="600" height="600" viewBox="0 0 600 600" fill="none" xmlns="http://www.w3.org/2000/svg">
<path d="M50.0005 275.004C50.0005 204.304 50.0005 168.929 71.9755 146.979C93.9255 125.004 129.3 125.004 200 125.004H325C395.7 125.004 431.075 125.004 453.025 146.979C475 168.929 475 204.304 475 275.004C475 345.704 475 381.079 453.025 403.029C431.075 425.004 395.7 425.004 325 425.004H200C129.3 425.004 93.9255 425.004 71.9755 403.029C50.0005 381.079 50.0005 345.704 50.0005 275.004Z" stroke="#BDBDBD" stroke-width="37.5"/>
<path d="M474.999 201.902C499.374 204.302 515.774 209.727 528.024 221.977C550.024 243.927 550.024 279.302 550.024 350.002C550.024 420.702 550.024 456.077 528.024 478.027C506.074 500.027 470.699 500.027 400.024 500.027H275.024C204.274 500.027 168.924 500.027 146.974 478.027C134.724 465.777 129.299 449.377 126.899 425.002" stroke="#BDBDBD" stroke-width="37.5"/>
<path d="M325 275.006C325 291.582 318.415 307.479 306.694 319.2C294.973 330.921 279.076 337.506 262.5 337.506C245.924 337.506 230.027 330.921 218.306 319.2C206.585 307.479 200 291.582 200 275.006C200 258.43 206.585 242.533 218.306 230.812C230.027 219.091 245.924 212.506 262.5 212.506C279.076 212.506 294.973 219.091 306.694 230.812C318.415 242.533 325 258.43 325 275.006Z" stroke="#BDBDBD" stroke-width="37.5"/>
<path d="M400.001 325V225M125.001 325V225" stroke="#BDBDBD" stroke-width="37.5" stroke-linecap="round"/>
</svg>
