<svg width="600" height="600" viewBox="0 0 600 600" fill="none" xmlns="http://www.w3.org/2000/svg">
<path d="M50.001 275.004C50.001 204.304 50.001 168.929 71.976 146.979C93.926 125.004 129.301 125.004 200.001 125.004H325.001C395.701 125.004 431.076 125.004 453.026 146.979C475.001 168.929 475.001 204.304 475.001 275.004C475.001 345.704 475.001 381.079 453.026 403.029C431.076 425.004 395.701 425.004 325.001 425.004H200.001C129.301 425.004 93.926 425.004 71.976 403.029C50.001 381.079 50.001 345.704 50.001 275.004Z" stroke="#DED9CD" stroke-width="37.5"/>
<path d="M475 201.902C499.375 204.302 515.775 209.727 528.025 221.977C550.025 243.927 550.025 279.302 550.025 350.002C550.025 420.702 550.025 456.077 528.025 478.027C506.075 500.027 470.7 500.027 400.025 500.027H275.025C204.275 500.027 168.925 500.027 146.975 478.027C134.725 465.777 129.3 449.377 126.9 425.002" stroke="#DED9CD" stroke-width="37.5"/>
<path d="M325 275.006C325 291.582 318.415 307.479 306.694 319.2C294.973 330.921 279.076 337.506 262.5 337.506C245.924 337.506 230.027 330.921 218.306 319.2C206.585 307.479 200 291.582 200 275.006C200 258.43 206.585 242.533 218.306 230.812C230.027 219.091 245.924 212.506 262.5 212.506C279.076 212.506 294.973 219.091 306.694 230.812C318.415 242.533 325 258.43 325 275.006Z" stroke="#DED9CD" stroke-width="37.5"/>
<path d="M400.002 325V225M125.002 325V225" stroke="#DED9CD" stroke-width="37.5" stroke-linecap="round"/>
</svg>
