<svg width="600" height="600" viewBox="0 0 600 600" fill="none" xmlns="http://www.w3.org/2000/svg">
<path d="M300.001 550.004C438.072 550.004 550.001 438.075 550.001 300.004C550.001 161.933 438.072 50.0039 300.001 50.0039C161.93 50.0039 50.0012 161.933 50.0012 300.004C50.0012 438.075 161.93 550.004 300.001 550.004Z" stroke="#DED9CD" stroke-width="37.5"/>
<path d="M300 375C341.421 375 375 341.421 375 300C375 258.579 341.421 225 300 225C258.579 225 225 258.579 225 300C225 341.421 258.579 375 300 375Z" stroke="#DED9CD" stroke-width="37.5"/>
<path d="M50.0006 325.006C50.0006 325.006 105.001 375.006 150.001 375.006C180.301 375.006 215.151 352.306 234.676 337.506M350.001 355.606C361.776 365.981 377.201 375.006 395.126 375.006C437.376 375.006 437.376 325.006 479.626 325.006C506.551 325.006 527.751 345.356 539.601 360.081" stroke="#DED9CD" stroke-width="37.5"/>
<path d="M362.5 175.006L400 125.006M475 175.006L500 150.006M300 125.006L275 100.006M262.5 175.006L228.35 184.156M416.25 224.431L417.9 259.731M516.95 252.131L475 289.081M175 125.006L150 100.006M169.8 228.606L155.175 196.406M141.625 316.056L162.5 287.506M92.0753 258.756L90.1003 223.456" stroke="#DED9CD" stroke-width="37.5" stroke-linecap="round"/>
</svg>
