<svg width="600" height="600" viewBox="0 0 600 600" fill="none" xmlns="http://www.w3.org/2000/svg">
<path d="M299.999 250.004C355.228 250.004 399.999 205.232 399.999 150.004C399.999 94.7754 355.228 50.0039 299.999 50.0039C244.771 50.0039 199.999 94.7754 199.999 150.004C199.999 205.232 244.771 250.004 299.999 250.004Z" stroke="#BDBDBD" stroke-width="37.5"/>
<path d="M449.999 225.006C491.424 225.006 524.999 197.006 524.999 162.506C524.999 128.006 491.424 100.006 449.999 100.006M149.999 225.006C108.574 225.006 74.999 197.006 74.999 162.506C74.999 128.006 108.574 100.006 149.999 100.006" stroke="#BDBDBD" stroke-width="37.5" stroke-linecap="round"/>
<path d="M299.999 525.006C382.842 525.006 449.999 480.234 449.999 425.006C449.999 369.777 382.842 325.006 299.999 325.006C217.156 325.006 149.999 369.777 149.999 425.006C149.999 480.234 217.156 525.006 299.999 525.006Z" stroke="#BDBDBD" stroke-width="37.5"/>
<path d="M499.999 475.004C543.849 465.379 574.999 441.029 574.999 412.504C574.999 383.979 543.849 359.629 499.999 350.004M99.999 475.004C56.149 465.379 24.999 441.029 24.999 412.504C24.999 383.979 56.149 359.629 99.999 350.004" stroke="#BDBDBD" stroke-width="37.5" stroke-linecap="round"/>
</svg>
