<svg width="600" height="600" viewBox="0 0 600 600" fill="none" xmlns="http://www.w3.org/2000/svg">
<path d="M225 250C280.228 250 325 205.228 325 150C325 94.7715 280.228 50 225 50C169.772 50 125 94.7715 125 150C125 205.228 169.772 250 225 250Z" stroke="#BDBDBD" stroke-width="37.5"/>
<path d="M375 225C394.891 225 413.968 217.098 428.033 203.033C442.098 188.968 450 169.891 450 150C450 130.109 442.098 111.032 428.033 96.967C413.968 82.9018 394.891 75 375 75" stroke="#BDBDBD" stroke-width="37.5" stroke-linecap="round"/>
<path d="M225 525C321.65 525 400 480.228 400 425C400 369.772 321.65 325 225 325C128.35 325 50 369.772 50 425C50 480.228 128.35 525 225 525Z" stroke="#BDBDBD" stroke-width="37.5"/>
<path d="M450 350C493.85 359.625 525 383.975 525 412.5C525 438.25 499.65 460.575 462.5 471.75" stroke="#BDBDBD" stroke-width="37.5" stroke-linecap="round"/>
</svg>
