<svg width="600" height="600" viewBox="0 0 600 600" fill="none" xmlns="http://www.w3.org/2000/svg">
<path d="M299.998 425C396.648 425 474.998 346.65 474.998 250C474.998 153.35 396.648 75 299.998 75C203.348 75 124.998 153.35 124.998 250C124.998 346.65 203.348 425 299.998 425Z" stroke="#DED9CD" stroke-width="37.5"/>
<path d="M99.999 414.054C124.156 441.126 153.768 462.78 186.889 477.594C220.01 492.407 255.891 500.044 292.174 500.004C434.574 500.004 549.999 384.579 549.999 242.179C549.999 165.829 516.799 97.2039 464.049 50.0039" stroke="#DED9CD" stroke-width="37.5" stroke-linecap="round"/>
<path d="M175 113.831C189.625 127.631 219.75 165.406 223.275 205.931C226.55 243.806 250.675 274.581 287.5 275.006C301.65 275.156 315.975 264.556 315.925 249.881C315.925 245.331 315.175 240.706 314.075 236.431C312.206 229.875 312.756 222.865 315.625 216.681C327.05 192.231 349.55 185.656 367.375 172.381C375.275 166.481 382.475 160.281 385.675 155.281C394.425 141.456 403.225 113.831 398.825 100.006M475 275.006C469.5 290.506 465.625 331.256 403.625 331.906C403.625 331.906 348.75 331.906 332.275 362.931C319.1 387.756 326.775 414.681 332.275 425.006" stroke="#DED9CD" stroke-width="37.5"/>
<path d="M299.999 550.004V500.004M299.999 550.004H249.999M299.999 550.004H349.999" stroke="#DED9CD" stroke-width="37.5" stroke-linecap="round"/>
</svg>
